<?xml version="1.0" encoding="UTF-8"?><svg xmlns="http://www.w3.org/2000/svg" xmlns:xlink="http://www.w3.org/1999/xlink" width="375pt" zoomAndPan="magnify" viewBox="0 0 375 149.999998" height="149.999998pt" preserveAspectRatio="xMidYMid meet" version="1.2"><defs><g/><clipPath xml:id="clip1" id="clip1"><path d="M 66 31 L 72 31 L 72 38 L 66 38 Z M 66 31 "/></clipPath><clipPath xml:id="clip2" id="clip2"><path d="M 50.019531 3.523438 L 99.871094 53.375 L 50.019531 103.226562 L 0.167969 53.375 Z M 50.019531 3.523438 "/></clipPath><clipPath xml:id="clip3" id="clip3"><path d="M 50.019531 3.523438 L 99.871094 53.375 L 50.019531 103.226562 L 0.167969 53.375 Z M 50.019531 3.523438 "/></clipPath><clipPath xml:id="clip4" id="clip4"><path d="M 57 37 L 66 37 L 66 47 L 57 47 Z M 57 37 "/></clipPath><clipPath xml:id="clip5" id="clip5"><path d="M 50.019531 3.523438 L 99.871094 53.375 L 50.019531 103.226562 L 0.167969 53.375 Z M 50.019531 3.523438 "/></clipPath><clipPath xml:id="clip6" id="clip6"><path d="M 50.019531 3.523438 L 99.871094 53.375 L 50.019531 103.226562 L 0.167969 53.375 Z M 50.019531 3.523438 "/></clipPath><clipPath xml:id="clip7" id="clip7"><path d="M 51 46 L 58 46 L 58 53 L 51 53 Z M 51 46 "/></clipPath><clipPath xml:id="clip8" id="clip8"><path d="M 50.019531 3.523438 L 99.871094 53.375 L 50.019531 103.226562 L 0.167969 53.375 Z M 50.019531 3.523438 "/></clipPath><clipPath xml:id="clip9" id="clip9"><path d="M 50.019531 3.523438 L 99.871094 53.375 L 50.019531 103.226562 L 0.167969 53.375 Z M 50.019531 3.523438 "/></clipPath><clipPath xml:id="clip10" id="clip10"><path d="M 36 61 L 43 61 L 43 67 L 36 67 Z M 36 61 "/></clipPath><clipPath xml:id="clip11" id="clip11"><path d="M 50.019531 3.523438 L 99.871094 53.375 L 50.019531 103.226562 L 0.167969 53.375 Z M 50.019531 3.523438 "/></clipPath><clipPath xml:id="clip12" id="clip12"><path d="M 50.019531 3.523438 L 99.871094 53.375 L 50.019531 103.226562 L 0.167969 53.375 Z M 50.019531 3.523438 "/></clipPath><clipPath xml:id="clip13" id="clip13"><path d="M 58 23 L 67 23 L 67 33 L 58 33 Z M 58 23 "/></clipPath><clipPath xml:id="clip14" id="clip14"><path d="M 50.019531 3.523438 L 99.871094 53.375 L 50.019531 103.226562 L 0.167969 53.375 Z M 50.019531 3.523438 "/></clipPath><clipPath xml:id="clip15" id="clip15"><path d="M 50.019531 3.523438 L 99.871094 53.375 L 50.019531 103.226562 L 0.167969 53.375 Z M 50.019531 3.523438 "/></clipPath><clipPath xml:id="clip16" id="clip16"><path d="M 28 53 L 38 53 L 38 62 L 28 62 Z M 28 53 "/></clipPath><clipPath xml:id="clip17" id="clip17"><path d="M 50.019531 3.523438 L 99.871094 53.375 L 50.019531 103.226562 L 0.167969 53.375 Z M 50.019531 3.523438 "/></clipPath><clipPath xml:id="clip18" id="clip18"><path d="M 50.019531 3.523438 L 99.871094 53.375 L 50.019531 103.226562 L 0.167969 53.375 Z M 50.019531 3.523438 "/></clipPath><clipPath xml:id="clip19" id="clip19"><path d="M 43 38 L 52 38 L 52 47 L 43 47 Z M 43 38 "/></clipPath><clipPath xml:id="clip20" id="clip20"><path d="M 50.019531 3.523438 L 99.871094 53.375 L 50.019531 103.226562 L 0.167969 53.375 Z M 50.019531 3.523438 "/></clipPath><clipPath xml:id="clip21" id="clip21"><path d="M 50.019531 3.523438 L 99.871094 53.375 L 50.019531 103.226562 L 0.167969 53.375 Z M 50.019531 3.523438 "/></clipPath><clipPath xml:id="clip22" id="clip22"><path d="M 52 32 L 58 32 L 58 39 L 52 39 Z M 52 32 "/></clipPath><clipPath xml:id="clip23" id="clip23"><path d="M 50.019531 3.523438 L 99.871094 53.375 L 50.019531 103.226562 L 0.167969 53.375 Z M 50.019531 3.523438 "/></clipPath><clipPath xml:id="clip24" id="clip24"><path d="M 50.019531 3.523438 L 99.871094 53.375 L 50.019531 103.226562 L 0.167969 53.375 Z M 50.019531 3.523438 "/></clipPath><clipPath xml:id="clip25" id="clip25"><path d="M 53 18 L 59 18 L 59 25 L 53 25 Z M 53 18 "/></clipPath><clipPath xml:id="clip26" id="clip26"><path d="M 50.019531 3.523438 L 99.871094 53.375 L 50.019531 103.226562 L 0.167969 53.375 Z M 50.019531 3.523438 "/></clipPath><clipPath xml:id="clip27" id="clip27"><path d="M 50.019531 3.523438 L 99.871094 53.375 L 50.019531 103.226562 L 0.167969 53.375 Z M 50.019531 3.523438 "/></clipPath><clipPath xml:id="clip28" id="clip28"><path d="M 44 24 L 53 24 L 53 34 L 44 34 Z M 44 24 "/></clipPath><clipPath xml:id="clip29" id="clip29"><path d="M 50.019531 3.523438 L 99.871094 53.375 L 50.019531 103.226562 L 0.167969 53.375 Z M 50.019531 3.523438 "/></clipPath><clipPath xml:id="clip30" id="clip30"><path d="M 50.019531 3.523438 L 99.871094 53.375 L 50.019531 103.226562 L 0.167969 53.375 Z M 50.019531 3.523438 "/></clipPath><clipPath xml:id="clip31" id="clip31"><path d="M 38 33 L 45 33 L 45 40 L 38 40 Z M 38 33 "/></clipPath><clipPath xml:id="clip32" id="clip32"><path d="M 50.019531 3.523438 L 99.871094 53.375 L 50.019531 103.226562 L 0.167969 53.375 Z M 50.019531 3.523438 "/></clipPath><clipPath xml:id="clip33" id="clip33"><path d="M 50.019531 3.523438 L 99.871094 53.375 L 50.019531 103.226562 L 0.167969 53.375 Z M 50.019531 3.523438 "/></clipPath><clipPath xml:id="clip34" id="clip34"><path d="M 23 48 L 30 48 L 30 54 L 23 54 Z M 23 48 "/></clipPath><clipPath xml:id="clip35" id="clip35"><path d="M 50.019531 3.523438 L 99.871094 53.375 L 50.019531 103.226562 L 0.167969 53.375 Z M 50.019531 3.523438 "/></clipPath><clipPath xml:id="clip36" id="clip36"><path d="M 50.019531 3.523438 L 99.871094 53.375 L 50.019531 103.226562 L 0.167969 53.375 Z M 50.019531 3.523438 "/></clipPath><clipPath xml:id="clip37" id="clip37"><path d="M 45 10 L 54 10 L 54 20 L 45 20 Z M 45 10 "/></clipPath><clipPath xml:id="clip38" id="clip38"><path d="M 50.019531 3.523438 L 99.871094 53.375 L 50.019531 103.226562 L 0.167969 53.375 Z M 50.019531 3.523438 "/></clipPath><clipPath xml:id="clip39" id="clip39"><path d="M 50.019531 3.523438 L 99.871094 53.375 L 50.019531 103.226562 L 0.167969 53.375 Z M 50.019531 3.523438 "/></clipPath><clipPath xml:id="clip40" id="clip40"><path d="M 15 40 L 25 40 L 25 50 L 15 50 Z M 15 40 "/></clipPath><clipPath xml:id="clip41" id="clip41"><path d="M 50.019531 3.523438 L 99.871094 53.375 L 50.019531 103.226562 L 0.167969 53.375 Z M 50.019531 3.523438 "/></clipPath><clipPath xml:id="clip42" id="clip42"><path d="M 50.019531 3.523438 L 99.871094 53.375 L 50.019531 103.226562 L 0.167969 53.375 Z M 50.019531 3.523438 "/></clipPath><clipPath xml:id="clip43" id="clip43"><path d="M 30 25 L 40 25 L 40 35 L 30 35 Z M 30 25 "/></clipPath><clipPath xml:id="clip44" id="clip44"><path d="M 50.019531 3.523438 L 99.871094 53.375 L 50.019531 103.226562 L 0.167969 53.375 Z M 50.019531 3.523438 "/></clipPath><clipPath xml:id="clip45" id="clip45"><path d="M 50.019531 3.523438 L 99.871094 53.375 L 50.019531 103.226562 L 0.167969 53.375 Z M 50.019531 3.523438 "/></clipPath><clipPath xml:id="clip46" id="clip46"><path d="M 39 19 L 46 19 L 46 26 L 39 26 Z M 39 19 "/></clipPath><clipPath xml:id="clip47" id="clip47"><path d="M 50.019531 3.523438 L 99.871094 53.375 L 50.019531 103.226562 L 0.167969 53.375 Z M 50.019531 3.523438 "/></clipPath><clipPath xml:id="clip48" id="clip48"><path d="M 50.019531 3.523438 L 99.871094 53.375 L 50.019531 103.226562 L 0.167969 53.375 Z M 50.019531 3.523438 "/></clipPath><clipPath xml:id="clip49" id="clip49"><path d="M 42 52 L 51 52 L 51 61 L 42 61 Z M 42 52 "/></clipPath><clipPath xml:id="clip50" id="clip50"><path d="M 50.019531 3.523438 L 99.871094 53.375 L 50.019531 103.226562 L 0.167969 53.375 Z M 50.019531 3.523438 "/></clipPath><clipPath xml:id="clip51" id="clip51"><path d="M 50.019531 3.523438 L 99.871094 53.375 L 50.019531 103.226562 L 0.167969 53.375 Z M 50.019531 3.523438 "/></clipPath><clipPath xml:id="clip52" id="clip52"><path d="M 37 47 L 44 47 L 44 53 L 37 53 Z M 37 47 "/></clipPath><clipPath xml:id="clip53" id="clip53"><path d="M 50.019531 3.523438 L 99.871094 53.375 L 50.019531 103.226562 L 0.167969 53.375 Z M 50.019531 3.523438 "/></clipPath><clipPath xml:id="clip54" id="clip54"><path d="M 50.019531 3.523438 L 99.871094 53.375 L 50.019531 103.226562 L 0.167969 53.375 Z M 50.019531 3.523438 "/></clipPath><clipPath xml:id="clip55" id="clip55"><path d="M 29 39 L 39 39 L 39 48 L 29 48 Z M 29 39 "/></clipPath><clipPath xml:id="clip56" id="clip56"><path d="M 50.019531 3.523438 L 99.871094 53.375 L 50.019531 103.226562 L 0.167969 53.375 Z M 50.019531 3.523438 "/></clipPath><clipPath xml:id="clip57" id="clip57"><path d="M 50.019531 3.523438 L 99.871094 53.375 L 50.019531 103.226562 L 0.167969 53.375 Z M 50.019531 3.523438 "/></clipPath><clipPath xml:id="clip58" id="clip58"><path d="M 24 34 L 31 34 L 31 41 L 24 41 Z M 24 34 "/></clipPath><clipPath xml:id="clip59" id="clip59"><path d="M 50.019531 3.523438 L 99.871094 53.375 L 50.019531 103.226562 L 0.167969 53.375 Z M 50.019531 3.523438 "/></clipPath><clipPath xml:id="clip60" id="clip60"><path d="M 50.019531 3.523438 L 99.871094 53.375 L 50.019531 103.226562 L 0.167969 53.375 Z M 50.019531 3.523438 "/></clipPath><clipPath xml:id="clip61" id="clip61"><path d="M 27 68 L 36 68 L 36 77 L 27 77 Z M 27 68 "/></clipPath><clipPath xml:id="clip62" id="clip62"><path d="M 50.019531 3.523438 L 99.871094 53.375 L 50.019531 103.226562 L 0.167969 53.375 Z M 50.019531 3.523438 "/></clipPath><clipPath xml:id="clip63" id="clip63"><path d="M 50.019531 3.523438 L 99.871094 53.375 L 50.019531 103.226562 L 0.167969 53.375 Z M 50.019531 3.523438 "/></clipPath><clipPath xml:id="clip64" id="clip64"><path d="M 21 62 L 28 62 L 28 69 L 21 69 Z M 21 62 "/></clipPath><clipPath xml:id="clip65" id="clip65"><path d="M 50.019531 3.523438 L 99.871094 53.375 L 50.019531 103.226562 L 0.167969 53.375 Z M 50.019531 3.523438 "/></clipPath><clipPath xml:id="clip66" id="clip66"><path d="M 50.019531 3.523438 L 99.871094 53.375 L 50.019531 103.226562 L 0.167969 53.375 Z M 50.019531 3.523438 "/></clipPath><clipPath xml:id="clip67" id="clip67"><path d="M 14 55 L 23 55 L 23 64 L 14 64 Z M 14 55 "/></clipPath><clipPath xml:id="clip68" id="clip68"><path d="M 50.019531 3.523438 L 99.871094 53.375 L 50.019531 103.226562 L 0.167969 53.375 Z M 50.019531 3.523438 "/></clipPath><clipPath xml:id="clip69" id="clip69"><path d="M 50.019531 3.523438 L 99.871094 53.375 L 50.019531 103.226562 L 0.167969 53.375 Z M 50.019531 3.523438 "/></clipPath><clipPath xml:id="clip70" id="clip70"><path d="M 9 50 L 15 50 L 15 56 L 9 56 Z M 9 50 "/></clipPath><clipPath xml:id="clip71" id="clip71"><path d="M 50.019531 3.523438 L 99.871094 53.375 L 50.019531 103.226562 L 0.167969 53.375 Z M 50.019531 3.523438 "/></clipPath><clipPath xml:id="clip72" id="clip72"><path d="M 50.019531 3.523438 L 99.871094 53.375 L 50.019531 103.226562 L 0.167969 53.375 Z M 50.019531 3.523438 "/></clipPath><clipPath xml:id="clip73" id="clip73"><path d="M 84 49 L 93 49 L 93 58 L 84 58 Z M 84 49 "/></clipPath><clipPath xml:id="clip74" id="clip74"><path d="M 50.019531 3.523438 L 99.871094 53.375 L 50.019531 103.226562 L 0.167969 53.375 Z M 50.019531 3.523438 "/></clipPath><clipPath xml:id="clip75" id="clip75"><path d="M 50.019531 3.523438 L 99.871094 53.375 L 50.019531 103.226562 L 0.167969 53.375 Z M 50.019531 3.523438 "/></clipPath><clipPath xml:id="clip76" id="clip76"><path d="M 54 79 L 63 79 L 63 88 L 54 88 Z M 54 79 "/></clipPath><clipPath xml:id="clip77" id="clip77"><path d="M 50.019531 3.523438 L 99.871094 53.375 L 50.019531 103.226562 L 0.167969 53.375 Z M 50.019531 3.523438 "/></clipPath><clipPath xml:id="clip78" id="clip78"><path d="M 50.019531 3.523438 L 99.871094 53.375 L 50.019531 103.226562 L 0.167969 53.375 Z M 50.019531 3.523438 "/></clipPath><clipPath xml:id="clip79" id="clip79"><path d="M 69 64 L 78 64 L 78 73 L 69 73 Z M 69 64 "/></clipPath><clipPath xml:id="clip80" id="clip80"><path d="M 50.019531 3.523438 L 99.871094 53.375 L 50.019531 103.226562 L 0.167969 53.375 Z M 50.019531 3.523438 "/></clipPath><clipPath xml:id="clip81" id="clip81"><path d="M 50.019531 3.523438 L 99.871094 53.375 L 50.019531 103.226562 L 0.167969 53.375 Z M 50.019531 3.523438 "/></clipPath><clipPath xml:id="clip82" id="clip82"><path d="M 77 58 L 84 58 L 84 64 L 77 64 Z M 77 58 "/></clipPath><clipPath xml:id="clip83" id="clip83"><path d="M 50.019531 3.523438 L 99.871094 53.375 L 50.019531 103.226562 L 0.167969 53.375 Z M 50.019531 3.523438 "/></clipPath><clipPath xml:id="clip84" id="clip84"><path d="M 50.019531 3.523438 L 99.871094 53.375 L 50.019531 103.226562 L 0.167969 53.375 Z M 50.019531 3.523438 "/></clipPath><clipPath xml:id="clip85" id="clip85"><path d="M 78 44 L 85 44 L 85 51 L 78 51 Z M 78 44 "/></clipPath><clipPath xml:id="clip86" id="clip86"><path d="M 50.019531 3.523438 L 99.871094 53.375 L 50.019531 103.226562 L 0.167969 53.375 Z M 50.019531 3.523438 "/></clipPath><clipPath xml:id="clip87" id="clip87"><path d="M 50.019531 3.523438 L 99.871094 53.375 L 50.019531 103.226562 L 0.167969 53.375 Z M 50.019531 3.523438 "/></clipPath><clipPath xml:id="clip88" id="clip88"><path d="M 70 50 L 79 50 L 79 59 L 70 59 Z M 70 50 "/></clipPath><clipPath xml:id="clip89" id="clip89"><path d="M 50.019531 3.523438 L 99.871094 53.375 L 50.019531 103.226562 L 0.167969 53.375 Z M 50.019531 3.523438 "/></clipPath><clipPath xml:id="clip90" id="clip90"><path d="M 50.019531 3.523438 L 99.871094 53.375 L 50.019531 103.226562 L 0.167969 53.375 Z M 50.019531 3.523438 "/></clipPath><clipPath xml:id="clip91" id="clip91"><path d="M 64 59 L 70 59 L 70 65 L 64 65 Z M 64 59 "/></clipPath><clipPath xml:id="clip92" id="clip92"><path d="M 50.019531 3.523438 L 99.871094 53.375 L 50.019531 103.226562 L 0.167969 53.375 Z M 50.019531 3.523438 "/></clipPath><clipPath xml:id="clip93" id="clip93"><path d="M 50.019531 3.523438 L 99.871094 53.375 L 50.019531 103.226562 L 0.167969 53.375 Z M 50.019531 3.523438 "/></clipPath><clipPath xml:id="clip94" id="clip94"><path d="M 49 73 L 56 73 L 56 80 L 49 80 Z M 49 73 "/></clipPath><clipPath xml:id="clip95" id="clip95"><path d="M 50.019531 3.523438 L 99.871094 53.375 L 50.019531 103.226562 L 0.167969 53.375 Z M 50.019531 3.523438 "/></clipPath><clipPath xml:id="clip96" id="clip96"><path d="M 50.019531 3.523438 L 99.871094 53.375 L 50.019531 103.226562 L 0.167969 53.375 Z M 50.019531 3.523438 "/></clipPath><clipPath xml:id="clip97" id="clip97"><path d="M 71 36 L 80 36 L 80 45 L 71 45 Z M 71 36 "/></clipPath><clipPath xml:id="clip98" id="clip98"><path d="M 50.019531 3.523438 L 99.871094 53.375 L 50.019531 103.226562 L 0.167969 53.375 Z M 50.019531 3.523438 "/></clipPath><clipPath xml:id="clip99" id="clip99"><path d="M 50.019531 3.523438 L 99.871094 53.375 L 50.019531 103.226562 L 0.167969 53.375 Z M 50.019531 3.523438 "/></clipPath><clipPath xml:id="clip100" id="clip100"><path d="M 41 66 L 50 66 L 50 75 L 41 75 Z M 41 66 "/></clipPath><clipPath xml:id="clip101" id="clip101"><path d="M 50.019531 3.523438 L 99.871094 53.375 L 50.019531 103.226562 L 0.167969 53.375 Z M 50.019531 3.523438 "/></clipPath><clipPath xml:id="clip102" id="clip102"><path d="M 50.019531 3.523438 L 99.871094 53.375 L 50.019531 103.226562 L 0.167969 53.375 Z M 50.019531 3.523438 "/></clipPath><clipPath xml:id="clip103" id="clip103"><path d="M 56 51 L 65 51 L 65 60 L 56 60 Z M 56 51 "/></clipPath><clipPath xml:id="clip104" id="clip104"><path d="M 50.019531 3.523438 L 99.871094 53.375 L 50.019531 103.226562 L 0.167969 53.375 Z M 50.019531 3.523438 "/></clipPath><clipPath xml:id="clip105" id="clip105"><path d="M 50.019531 3.523438 L 99.871094 53.375 L 50.019531 103.226562 L 0.167969 53.375 Z M 50.019531 3.523438 "/></clipPath><clipPath xml:id="clip106" id="clip106"><path d="M 65 45 L 71 45 L 71 52 L 65 52 Z M 65 45 "/></clipPath><clipPath xml:id="clip107" id="clip107"><path d="M 50.019531 3.523438 L 99.871094 53.375 L 50.019531 103.226562 L 0.167969 53.375 Z M 50.019531 3.523438 "/></clipPath><clipPath xml:id="clip108" id="clip108"><path d="M 50.019531 3.523438 L 99.871094 53.375 L 50.019531 103.226562 L 0.167969 53.375 Z M 50.019531 3.523438 "/></clipPath><clipPath xml:id="clip109" id="clip109"><path d="M 63 72 L 69 72 L 69 79 L 63 79 Z M 63 72 "/></clipPath><clipPath xml:id="clip110" id="clip110"><path d="M 50.019531 3.523438 L 99.871094 53.375 L 50.019531 103.226562 L 0.167969 53.375 Z M 50.019531 3.523438 "/></clipPath><clipPath xml:id="clip111" id="clip111"><path d="M 50.019531 3.523438 L 99.871094 53.375 L 50.019531 103.226562 L 0.167969 53.375 Z M 50.019531 3.523438 "/></clipPath><clipPath xml:id="clip112" id="clip112"><path d="M 55 65 L 64 65 L 64 74 L 55 74 Z M 55 65 "/></clipPath><clipPath xml:id="clip113" id="clip113"><path d="M 50.019531 3.523438 L 99.871094 53.375 L 50.019531 103.226562 L 0.167969 53.375 Z M 50.019531 3.523438 "/></clipPath><clipPath xml:id="clip114" id="clip114"><path d="M 50.019531 3.523438 L 99.871094 53.375 L 50.019531 103.226562 L 0.167969 53.375 Z M 50.019531 3.523438 "/></clipPath><clipPath xml:id="clip115" id="clip115"><path d="M 50 60 L 57 60 L 57 66 L 50 66 Z M 50 60 "/></clipPath><clipPath xml:id="clip116" id="clip116"><path d="M 50.019531 3.523438 L 99.871094 53.375 L 50.019531 103.226562 L 0.167969 53.375 Z M 50.019531 3.523438 "/></clipPath><clipPath xml:id="clip117" id="clip117"><path d="M 50.019531 3.523438 L 99.871094 53.375 L 50.019531 103.226562 L 0.167969 53.375 Z M 50.019531 3.523438 "/></clipPath><clipPath xml:id="clip118" id="clip118"><path d="M 47 88 L 54 88 L 54 95 L 47 95 Z M 47 88 "/></clipPath><clipPath xml:id="clip119" id="clip119"><path d="M 50.019531 3.523438 L 99.871094 53.375 L 50.019531 103.226562 L 0.167969 53.375 Z M 50.019531 3.523438 "/></clipPath><clipPath xml:id="clip120" id="clip120"><path d="M 50.019531 3.523438 L 99.871094 53.375 L 50.019531 103.226562 L 0.167969 53.375 Z M 50.019531 3.523438 "/></clipPath><clipPath xml:id="clip121" id="clip121"><path d="M 39 80 L 49 80 L 49 90 L 39 90 Z M 39 80 "/></clipPath><clipPath xml:id="clip122" id="clip122"><path d="M 50.019531 3.523438 L 99.871094 53.375 L 50.019531 103.226562 L 0.167969 53.375 Z M 50.019531 3.523438 "/></clipPath><clipPath xml:id="clip123" id="clip123"><path d="M 50.019531 3.523438 L 99.871094 53.375 L 50.019531 103.226562 L 0.167969 53.375 Z M 50.019531 3.523438 "/></clipPath><clipPath xml:id="clip124" id="clip124"><path d="M 34 75 L 41 75 L 41 82 L 34 82 Z M 34 75 "/></clipPath><clipPath xml:id="clip125" id="clip125"><path d="M 50.019531 3.523438 L 99.871094 53.375 L 50.019531 103.226562 L 0.167969 53.375 Z M 50.019531 3.523438 "/></clipPath><clipPath xml:id="clip126" id="clip126"><path d="M 50.019531 3.523438 L 99.871094 53.375 L 50.019531 103.226562 L 0.167969 53.375 Z M 50.019531 3.523438 "/></clipPath><clipPath xml:id="clip127" id="clip127"><path d="M 0 3 L 100 3 L 100 104 L 0 104 Z M 0 3 "/></clipPath><clipPath xml:id="clip128" id="clip128"><path d="M 50.019531 3.523438 L 99.871094 53.375 L 50.019531 103.226562 L 0.167969 53.375 Z M 50.019531 3.523438 "/></clipPath><clipPath xml:id="clip129" id="clip129"><path d="M 50.019531 3.523438 L 99.871094 53.375 L 50.019531 103.226562 L 0.167969 53.375 Z M 50.019531 3.523438 "/></clipPath></defs><g xml:id="surface1" id="surface1"><g clip-rule="nonzero" clip-path="url(#clip1)"><g clip-rule="nonzero" clip-path="url(#clip2)"><g clip-rule="nonzero" clip-path="url(#clip3)"><path style=" stroke:none;fill-rule:nonzero;fill:rgb(100%,8.628845%,8.628845%);fill-opacity:1;" d="M 66.285156 35.847656 L 70.171875 31.960938 C 70.5 31.632812 71.03125 31.632812 71.363281 31.960938 L 71.433594 32.03125 C 71.765625 32.363281 71.765625 32.894531 71.4375 33.222656 L 67.550781 37.109375 C 67.222656 37.4375 66.6875 37.441406 66.355469 37.109375 L 66.285156 37.039062 C 65.957031 36.707031 65.957031 36.175781 66.285156 35.847656 "/></g></g></g><g clip-rule="nonzero" clip-path="url(#clip4)"><g clip-rule="nonzero" clip-path="url(#clip5)"><g clip-rule="nonzero" clip-path="url(#clip6)"><path style=" stroke:none;fill-rule:nonzero;fill:rgb(100%,8.628845%,8.628845%);fill-opacity:1;" d="M 61.441406 43.949219 L 59.449219 41.953125 L 61.605469 39.796875 L 63.601562 41.792969 Z M 61.972656 45.742188 C 61.976562 45.738281 61.976562 45.738281 61.976562 45.738281 L 65.390625 42.324219 C 65.734375 41.980469 65.757812 41.441406 65.4375 41.117188 L 62.316406 37.996094 C 62.308594 37.984375 62.296875 37.972656 62.28125 37.957031 C 62.191406 37.867188 62.082031 37.804688 61.964844 37.765625 C 61.667969 37.675781 61.320312 37.753906 61.070312 38.003906 C 61.046875 38.027344 61.03125 38.042969 61.011719 38.066406 L 57.65625 41.417969 C 57.304688 41.761719 57.289062 42.300781 57.605469 42.625 L 60.765625 45.789062 C 61.085938 46.109375 61.628906 46.089844 61.972656 45.742188 "/></g></g></g><g clip-rule="nonzero" clip-path="url(#clip7)"><g clip-rule="nonzero" clip-path="url(#clip8)"><g clip-rule="nonzero" clip-path="url(#clip9)"><path style=" stroke:none;fill-rule:nonzero;fill:rgb(100%,8.628845%,8.628845%);fill-opacity:1;" d="M 51.613281 50.519531 L 55.496094 46.636719 C 55.824219 46.308594 56.359375 46.304688 56.6875 46.636719 L 56.757812 46.707031 C 57.089844 47.035156 57.085938 47.570312 56.757812 47.898438 L 52.875 51.785156 C 52.542969 52.113281 52.011719 52.113281 51.679688 51.785156 L 51.613281 51.714844 C 51.28125 51.382812 51.28125 50.851562 51.613281 50.519531 "/></g></g></g><g clip-rule="nonzero" clip-path="url(#clip10)"><g clip-rule="nonzero" clip-path="url(#clip11)"><g clip-rule="nonzero" clip-path="url(#clip12)"><path style=" stroke:none;fill-rule:nonzero;fill:rgb(100%,8.628845%,8.628845%);fill-opacity:1;" d="M 36.933594 65.199219 L 40.820312 61.3125 C 41.148438 60.984375 41.679688 60.984375 42.011719 61.3125 L 42.082031 61.382812 C 42.414062 61.714844 42.414062 62.246094 42.082031 62.578125 L 38.199219 66.460938 C 37.867188 66.792969 37.335938 66.792969 37.003906 66.460938 L 36.933594 66.390625 C 36.605469 66.058594 36.605469 65.527344 36.933594 65.199219 "/></g></g></g><g clip-rule="nonzero" clip-path="url(#clip13)"><g clip-rule="nonzero" clip-path="url(#clip14)"><g clip-rule="nonzero" clip-path="url(#clip15)"><path style=" stroke:none;fill-rule:nonzero;fill:rgb(100%,8.628845%,8.628845%);fill-opacity:1;" d="M 62.574219 30.007812 L 60.578125 28.003906 L 62.738281 25.851562 L 64.734375 27.847656 Z M 63.109375 31.796875 L 66.527344 28.378906 C 66.871094 28.035156 66.894531 27.492188 66.574219 27.171875 L 63.453125 24.050781 C 63.441406 24.039062 63.425781 24.023438 63.414062 24.011719 C 63.324219 23.921875 63.214844 23.855469 63.097656 23.820312 C 62.800781 23.726562 62.449219 23.808594 62.203125 24.054688 C 62.183594 24.078125 62.160156 24.097656 62.144531 24.117188 L 58.789062 27.46875 C 58.441406 27.816406 58.417969 28.355469 58.742188 28.679688 L 61.898438 31.839844 C 62.222656 32.164062 62.761719 32.140625 63.109375 31.796875 "/></g></g></g><g clip-rule="nonzero" clip-path="url(#clip16)"><g clip-rule="nonzero" clip-path="url(#clip17)"><g clip-rule="nonzero" clip-path="url(#clip18)"><path style=" stroke:none;fill-rule:nonzero;fill:rgb(100%,8.628845%,8.628845%);fill-opacity:1;" d="M 32.820312 59.761719 L 30.820312 57.761719 L 32.984375 55.605469 L 34.980469 57.601562 Z M 33.351562 61.554688 C 33.351562 61.554688 33.351562 61.554688 33.355469 61.550781 L 36.769531 58.136719 C 37.117188 57.789062 37.136719 57.25 36.816406 56.929688 L 33.695312 53.808594 C 33.683594 53.796875 33.671875 53.78125 33.660156 53.765625 C 33.570312 53.675781 33.457031 53.613281 33.34375 53.578125 C 33.046875 53.484375 32.695312 53.5625 32.445312 53.8125 C 32.425781 53.835938 32.40625 53.851562 32.390625 53.875 L 29.035156 57.226562 C 28.6875 57.574219 28.664062 58.113281 28.984375 58.4375 L 32.140625 61.597656 C 32.464844 61.921875 33.007812 61.898438 33.351562 61.554688 "/></g></g></g><g clip-rule="nonzero" clip-path="url(#clip19)"><g clip-rule="nonzero" clip-path="url(#clip20)"><g clip-rule="nonzero" clip-path="url(#clip21)"><path style=" stroke:none;fill-rule:nonzero;fill:rgb(100%,8.628845%,8.628845%);fill-opacity:1;" d="M 47.699219 44.882812 L 45.699219 42.882812 L 47.859375 40.730469 L 49.855469 42.726562 Z M 48.230469 46.675781 C 48.234375 46.671875 48.234375 46.671875 48.234375 46.671875 L 51.648438 43.257812 C 51.992188 42.910156 52.015625 42.371094 51.695312 42.050781 L 48.574219 38.929688 C 48.5625 38.917969 48.550781 38.902344 48.539062 38.886719 C 48.449219 38.796875 48.335938 38.734375 48.21875 38.699219 C 47.921875 38.605469 47.574219 38.6875 47.324219 38.933594 C 47.304688 38.957031 47.285156 38.972656 47.269531 38.996094 L 43.910156 42.347656 C 43.5625 42.695312 43.539062 43.234375 43.863281 43.558594 L 47.019531 46.71875 C 47.34375 47.042969 47.886719 47.019531 48.230469 46.675781 "/></g></g></g><g clip-rule="nonzero" clip-path="url(#clip22)"><g clip-rule="nonzero" clip-path="url(#clip23)"><g clip-rule="nonzero" clip-path="url(#clip24)"><path style=" stroke:none;fill-rule:nonzero;fill:rgb(100%,8.628845%,8.628845%);fill-opacity:1;" d="M 52.542969 36.777344 L 56.425781 32.890625 C 56.757812 32.5625 57.289062 32.5625 57.617188 32.890625 L 57.691406 32.964844 C 58.019531 33.292969 58.023438 33.828125 57.691406 34.15625 L 53.808594 38.042969 C 53.480469 38.371094 52.941406 38.371094 52.613281 38.042969 L 52.542969 37.96875 C 52.214844 37.640625 52.214844 37.105469 52.542969 36.777344 "/></g></g></g><g clip-rule="nonzero" clip-path="url(#clip25)"><g clip-rule="nonzero" clip-path="url(#clip26)"><g clip-rule="nonzero" clip-path="url(#clip27)"><path style=" stroke:none;fill-rule:nonzero;fill:rgb(100%,8.628845%,8.628845%);fill-opacity:1;" d="M 53.472656 23.03125 L 57.359375 19.144531 C 57.6875 18.816406 58.21875 18.820312 58.546875 19.148438 L 58.621094 19.21875 C 58.949219 19.546875 58.953125 20.082031 58.625 20.410156 L 54.738281 24.296875 C 54.410156 24.625 53.871094 24.625 53.542969 24.296875 L 53.472656 24.222656 C 53.144531 23.894531 53.144531 23.359375 53.472656 23.03125 "/></g></g></g><g clip-rule="nonzero" clip-path="url(#clip28)"><g clip-rule="nonzero" clip-path="url(#clip29)"><g clip-rule="nonzero" clip-path="url(#clip30)"><path style=" stroke:none;fill-rule:nonzero;fill:rgb(100%,8.628845%,8.628845%);fill-opacity:1;" d="M 48.628906 31.136719 L 46.636719 29.140625 L 48.792969 26.980469 L 50.789062 28.980469 Z M 49.160156 32.929688 C 49.164062 32.925781 49.164062 32.925781 49.164062 32.925781 L 52.578125 29.511719 C 52.921875 29.167969 52.945312 28.625 52.625 28.304688 L 49.503906 25.183594 C 49.492188 25.167969 49.480469 25.15625 49.46875 25.144531 C 49.378906 25.054688 49.269531 24.992188 49.152344 24.953125 C 48.851562 24.859375 48.503906 24.941406 48.253906 25.191406 C 48.234375 25.210938 48.21875 25.230469 48.199219 25.253906 L 44.84375 28.601562 C 44.492188 28.949219 44.476562 29.488281 44.792969 29.8125 L 47.953125 32.976562 C 48.273438 33.296875 48.816406 33.277344 49.160156 32.929688 "/></g></g></g><g clip-rule="nonzero" clip-path="url(#clip31)"><g clip-rule="nonzero" clip-path="url(#clip32)"><g clip-rule="nonzero" clip-path="url(#clip33)"><path style=" stroke:none;fill-rule:nonzero;fill:rgb(100%,8.628845%,8.628845%);fill-opacity:1;" d="M 38.796875 37.707031 L 42.679688 33.820312 C 43.007812 33.492188 43.546875 33.492188 43.875 33.820312 L 43.945312 33.894531 C 44.273438 34.222656 44.273438 34.757812 43.945312 35.085938 L 40.0625 38.972656 C 39.730469 39.300781 39.195312 39.300781 38.867188 38.972656 L 38.796875 38.898438 C 38.46875 38.570312 38.464844 38.035156 38.796875 37.707031 "/></g></g></g><g clip-rule="nonzero" clip-path="url(#clip34)"><g clip-rule="nonzero" clip-path="url(#clip35)"><g clip-rule="nonzero" clip-path="url(#clip36)"><path style=" stroke:none;fill-rule:nonzero;fill:rgb(100%,8.628845%,8.628845%);fill-opacity:1;" d="M 24.121094 52.382812 L 28.003906 48.5 C 28.335938 48.167969 28.867188 48.171875 29.195312 48.5 L 29.269531 48.570312 C 29.597656 48.898438 29.601562 49.433594 29.269531 49.765625 L 25.386719 53.648438 C 25.054688 53.980469 24.519531 53.976562 24.191406 53.648438 L 24.121094 53.574219 C 23.792969 53.246094 23.789062 52.714844 24.121094 52.382812 "/></g></g></g><g clip-rule="nonzero" clip-path="url(#clip37)"><g clip-rule="nonzero" clip-path="url(#clip38)"><g clip-rule="nonzero" clip-path="url(#clip39)"><path style=" stroke:none;fill-rule:nonzero;fill:rgb(100%,8.628845%,8.628845%);fill-opacity:1;" d="M 49.761719 17.191406 L 47.765625 15.191406 L 49.925781 13.039062 L 51.917969 15.03125 Z M 50.292969 18.980469 L 53.710938 15.566406 C 54.058594 15.21875 54.082031 14.679688 53.757812 14.355469 L 50.636719 11.234375 C 50.628906 11.226562 50.613281 11.210938 50.601562 11.199219 C 50.511719 11.109375 50.402344 11.042969 50.285156 11.007812 C 49.988281 10.914062 49.636719 10.996094 49.390625 11.242188 C 49.371094 11.265625 49.347656 11.285156 49.332031 11.304688 L 45.976562 14.65625 C 45.628906 15 45.605469 15.542969 45.925781 15.863281 L 49.085938 19.027344 C 49.40625 19.347656 49.949219 19.328125 50.292969 18.980469 "/></g></g></g><g clip-rule="nonzero" clip-path="url(#clip40)"><g clip-rule="nonzero" clip-path="url(#clip41)"><g clip-rule="nonzero" clip-path="url(#clip42)"><path style=" stroke:none;fill-rule:nonzero;fill:rgb(100%,8.628845%,8.628845%);fill-opacity:1;" d="M 20.003906 46.945312 L 18.007812 44.949219 L 20.171875 42.792969 L 22.164062 44.785156 Z M 20.539062 48.738281 C 20.539062 48.738281 20.539062 48.738281 20.539062 48.734375 L 23.953125 45.320312 C 24.300781 44.976562 24.324219 44.4375 24 44.113281 L 20.882812 40.992188 C 20.871094 40.984375 20.859375 40.96875 20.847656 40.953125 C 20.757812 40.863281 20.644531 40.800781 20.527344 40.761719 C 20.234375 40.671875 19.882812 40.75 19.632812 41 C 19.613281 41.023438 19.59375 41.039062 19.578125 41.0625 L 16.222656 44.414062 C 15.871094 44.757812 15.851562 45.300781 16.171875 45.621094 L 19.328125 48.785156 C 19.648438 49.105469 20.191406 49.085938 20.539062 48.738281 "/></g></g></g><g clip-rule="nonzero" clip-path="url(#clip43)"><g clip-rule="nonzero" clip-path="url(#clip44)"><g clip-rule="nonzero" clip-path="url(#clip45)"><path style=" stroke:none;fill-rule:nonzero;fill:rgb(100%,8.628845%,8.628845%);fill-opacity:1;" d="M 34.882812 32.066406 L 32.886719 30.070312 L 35.046875 27.917969 L 37.039062 29.910156 Z M 35.414062 33.859375 C 35.417969 33.855469 35.417969 33.855469 35.417969 33.855469 L 38.832031 30.441406 C 39.179688 30.097656 39.203125 29.558594 38.878906 29.234375 L 35.757812 26.113281 C 35.75 26.105469 35.738281 26.089844 35.726562 26.074219 C 35.636719 25.984375 35.523438 25.921875 35.40625 25.886719 C 35.109375 25.792969 34.761719 25.875 34.511719 26.121094 C 34.492188 26.144531 34.472656 26.160156 34.457031 26.183594 L 31.097656 29.535156 C 30.75 29.878906 30.726562 30.421875 31.046875 30.742188 L 34.207031 33.90625 C 34.527344 34.226562 35.070312 34.207031 35.414062 33.859375 "/></g></g></g><g clip-rule="nonzero" clip-path="url(#clip46)"><g clip-rule="nonzero" clip-path="url(#clip47)"><g clip-rule="nonzero" clip-path="url(#clip48)"><path style=" stroke:none;fill-rule:nonzero;fill:rgb(100%,8.628845%,8.628845%);fill-opacity:1;" d="M 39.730469 23.964844 L 43.613281 20.078125 C 43.945312 19.75 44.476562 19.75 44.804688 20.078125 L 44.875 20.148438 C 45.207031 20.480469 45.207031 21.011719 44.875 21.34375 L 40.992188 25.226562 C 40.664062 25.554688 40.128906 25.558594 39.796875 25.226562 L 39.730469 25.15625 C 39.398438 24.824219 39.402344 24.292969 39.730469 23.964844 "/></g></g></g><g clip-rule="nonzero" clip-path="url(#clip49)"><g clip-rule="nonzero" clip-path="url(#clip50)"><g clip-rule="nonzero" clip-path="url(#clip51)"><path style=" stroke:none;fill-rule:nonzero;fill:rgb(100%,8.628845%,8.628845%);fill-opacity:1;" d="M 46.765625 58.628906 L 44.769531 56.628906 L 46.929688 54.472656 L 48.921875 56.46875 Z M 47.296875 60.417969 L 50.714844 57.003906 C 51.0625 56.652344 51.085938 56.113281 50.761719 55.792969 L 47.640625 52.671875 C 47.632812 52.660156 47.617188 52.648438 47.605469 52.636719 C 47.515625 52.546875 47.40625 52.480469 47.289062 52.441406 C 46.992188 52.351562 46.644531 52.433594 46.390625 52.683594 C 46.375 52.699219 46.351562 52.722656 46.339844 52.742188 L 42.980469 56.09375 C 42.632812 56.4375 42.609375 56.980469 42.929688 57.300781 L 46.089844 60.464844 C 46.40625 60.785156 46.949219 60.765625 47.296875 60.417969 "/></g></g></g><g clip-rule="nonzero" clip-path="url(#clip52)"><g clip-rule="nonzero" clip-path="url(#clip53)"><g clip-rule="nonzero" clip-path="url(#clip54)"><path style=" stroke:none;fill-rule:nonzero;fill:rgb(100%,8.628845%,8.628845%);fill-opacity:1;" d="M 37.863281 51.453125 L 41.75 47.566406 C 42.078125 47.238281 42.613281 47.242188 42.941406 47.570312 L 43.015625 47.640625 C 43.34375 47.96875 43.34375 48.503906 43.015625 48.832031 L 39.128906 52.71875 C 38.800781 53.046875 38.265625 53.046875 37.9375 52.71875 L 37.863281 52.644531 C 37.535156 52.316406 37.535156 51.78125 37.863281 51.453125 "/></g></g></g><g clip-rule="nonzero" clip-path="url(#clip55)"><g clip-rule="nonzero" clip-path="url(#clip56)"><g clip-rule="nonzero" clip-path="url(#clip57)"><path style=" stroke:none;fill-rule:nonzero;fill:rgb(100%,8.628845%,8.628845%);fill-opacity:1;" d="M 33.953125 45.816406 L 31.957031 43.816406 L 34.113281 41.660156 L 36.109375 43.65625 Z M 34.484375 47.605469 L 37.902344 44.191406 C 38.25 43.84375 38.269531 43.300781 37.949219 42.980469 L 34.828125 39.859375 C 34.816406 39.847656 34.804688 39.832031 34.792969 39.824219 C 34.699219 39.730469 34.59375 39.667969 34.476562 39.628906 C 34.175781 39.535156 33.828125 39.617188 33.578125 39.867188 C 33.558594 39.886719 33.539062 39.910156 33.523438 39.925781 L 30.164062 43.277344 C 29.820312 43.625 29.796875 44.167969 30.117188 44.488281 L 33.277344 47.652344 C 33.59375 47.972656 34.136719 47.953125 34.484375 47.605469 "/></g></g></g><g clip-rule="nonzero" clip-path="url(#clip58)"><g clip-rule="nonzero" clip-path="url(#clip59)"><g clip-rule="nonzero" clip-path="url(#clip60)"><path style=" stroke:none;fill-rule:nonzero;fill:rgb(100%,8.628845%,8.628845%);fill-opacity:1;" d="M 25.050781 38.640625 L 28.9375 34.753906 C 29.265625 34.425781 29.796875 34.425781 30.128906 34.757812 L 30.199219 34.824219 C 30.53125 35.15625 30.53125 35.6875 30.203125 36.015625 L 26.316406 39.902344 C 25.988281 40.230469 25.453125 40.234375 25.121094 39.902344 L 25.050781 39.832031 C 24.722656 39.503906 24.722656 38.96875 25.050781 38.640625 "/></g></g></g><g clip-rule="nonzero" clip-path="url(#clip61)"><g clip-rule="nonzero" clip-path="url(#clip62)"><g clip-rule="nonzero" clip-path="url(#clip63)"><path style=" stroke:none;fill-rule:nonzero;fill:rgb(100%,8.628845%,8.628845%);fill-opacity:1;" d="M 31.09375 74.296875 L 29.101562 72.296875 L 31.261719 70.144531 L 33.253906 72.136719 Z M 31.628906 76.085938 C 31.628906 76.085938 31.628906 76.085938 31.632812 76.082031 L 35.046875 72.667969 C 35.394531 72.324219 35.414062 71.785156 35.09375 71.460938 L 31.972656 68.339844 C 31.964844 68.332031 31.949219 68.316406 31.9375 68.304688 C 31.847656 68.214844 31.738281 68.148438 31.621094 68.109375 C 31.324219 68.019531 30.972656 68.101562 30.726562 68.347656 C 30.707031 68.367188 30.683594 68.390625 30.667969 68.410156 L 27.3125 71.761719 C 26.964844 72.105469 26.941406 72.648438 27.261719 72.96875 L 30.421875 76.132812 C 30.742188 76.453125 31.285156 76.433594 31.628906 76.085938 "/></g></g></g><g clip-rule="nonzero" clip-path="url(#clip64)"><g clip-rule="nonzero" clip-path="url(#clip65)"><g clip-rule="nonzero" clip-path="url(#clip66)"><path style=" stroke:none;fill-rule:nonzero;fill:rgb(100%,8.628845%,8.628845%);fill-opacity:1;" d="M 22.195312 67.121094 L 26.082031 63.234375 C 26.410156 62.90625 26.949219 62.90625 27.277344 63.234375 L 27.347656 63.308594 C 27.675781 63.636719 27.675781 64.171875 27.347656 64.5 L 23.460938 68.386719 C 23.132812 68.714844 22.597656 68.710938 22.269531 68.382812 L 22.199219 68.3125 C 21.871094 67.984375 21.867188 67.449219 22.195312 67.121094 "/></g></g></g><g clip-rule="nonzero" clip-path="url(#clip67)"><g clip-rule="nonzero" clip-path="url(#clip68)"><g clip-rule="nonzero" clip-path="url(#clip69)"><path style=" stroke:none;fill-rule:nonzero;fill:rgb(100%,8.628845%,8.628845%);fill-opacity:1;" d="M 18.28125 61.484375 L 16.289062 59.484375 L 18.445312 57.328125 L 20.441406 59.324219 Z M 18.816406 63.273438 C 18.816406 63.273438 18.816406 63.273438 18.820312 63.269531 L 22.234375 59.855469 C 22.582031 59.511719 22.601562 58.96875 22.28125 58.648438 L 19.160156 55.527344 C 19.148438 55.515625 19.136719 55.503906 19.125 55.492188 C 19.03125 55.398438 18.925781 55.335938 18.808594 55.296875 C 18.511719 55.203125 18.160156 55.285156 17.910156 55.535156 C 17.890625 55.554688 17.871094 55.578125 17.855469 55.59375 L 14.496094 58.949219 C 14.152344 59.292969 14.128906 59.835938 14.449219 60.15625 L 17.609375 63.320312 C 17.929688 63.640625 18.472656 63.621094 18.816406 63.273438 "/></g></g></g><g clip-rule="nonzero" clip-path="url(#clip70)"><g clip-rule="nonzero" clip-path="url(#clip71)"><g clip-rule="nonzero" clip-path="url(#clip72)"><path style=" stroke:none;fill-rule:nonzero;fill:rgb(100%,8.628845%,8.628845%);fill-opacity:1;" d="M 9.382812 54.308594 L 13.269531 50.421875 C 13.597656 50.09375 14.132812 50.09375 14.464844 50.421875 L 14.53125 50.492188 C 14.863281 50.824219 14.859375 51.355469 14.53125 51.683594 L 10.644531 55.570312 C 10.316406 55.898438 9.785156 55.898438 9.457031 55.570312 L 9.386719 55.5 C 9.054688 55.167969 9.054688 54.636719 9.382812 54.308594 "/></g></g></g><g clip-rule="nonzero" clip-path="url(#clip73)"><g clip-rule="nonzero" clip-path="url(#clip74)"><g clip-rule="nonzero" clip-path="url(#clip75)"><path style=" stroke:none;fill-rule:nonzero;fill:rgb(100%,8.628845%,8.628845%);fill-opacity:1;" d="M 88.199219 55.628906 L 86.203125 53.628906 L 88.363281 51.476562 L 90.355469 53.46875 Z M 88.730469 57.417969 L 92.148438 54 C 92.496094 53.65625 92.519531 53.117188 92.195312 52.792969 L 89.074219 49.671875 C 89.0625 49.660156 89.050781 49.648438 89.039062 49.636719 C 88.949219 49.546875 88.839844 49.480469 88.722656 49.445312 C 88.425781 49.351562 88.074219 49.433594 87.828125 49.679688 C 87.808594 49.703125 87.785156 49.722656 87.769531 49.742188 L 84.414062 53.09375 C 84.066406 53.4375 84.042969 53.980469 84.363281 54.300781 L 87.523438 57.464844 C 87.84375 57.785156 88.386719 57.765625 88.730469 57.417969 "/></g></g></g><g clip-rule="nonzero" clip-path="url(#clip76)"><g clip-rule="nonzero" clip-path="url(#clip77)"><g clip-rule="nonzero" clip-path="url(#clip78)"><path style=" stroke:none;fill-rule:nonzero;fill:rgb(100%,8.628845%,8.628845%);fill-opacity:1;" d="M 58.441406 85.382812 L 56.445312 83.386719 L 58.609375 81.230469 L 60.601562 83.222656 Z M 58.976562 87.175781 C 58.976562 87.175781 58.976562 87.175781 58.976562 87.171875 L 62.390625 83.757812 C 62.738281 83.414062 62.761719 82.875 62.4375 82.550781 L 59.316406 79.429688 C 59.304688 79.417969 59.296875 79.40625 59.285156 79.390625 C 59.195312 79.300781 59.082031 79.238281 58.964844 79.199219 C 58.671875 79.109375 58.320312 79.1875 58.070312 79.4375 C 58.050781 79.457031 58.03125 79.476562 58.015625 79.5 L 54.660156 82.851562 C 54.308594 83.195312 54.289062 83.738281 54.609375 84.058594 L 57.765625 87.222656 C 58.085938 87.542969 58.628906 87.523438 58.976562 87.175781 "/></g></g></g><g clip-rule="nonzero" clip-path="url(#clip79)"><g clip-rule="nonzero" clip-path="url(#clip80)"><g clip-rule="nonzero" clip-path="url(#clip81)"><path style=" stroke:none;fill-rule:nonzero;fill:rgb(100%,8.628845%,8.628845%);fill-opacity:1;" d="M 73.320312 70.503906 L 71.324219 68.507812 L 73.484375 66.355469 L 75.476562 68.347656 Z M 73.851562 72.296875 C 73.855469 72.292969 73.855469 72.292969 73.855469 72.292969 L 77.269531 68.878906 C 77.617188 68.535156 77.640625 67.996094 77.316406 67.671875 L 74.195312 64.550781 C 74.183594 64.539062 74.175781 64.527344 74.164062 64.511719 C 74.074219 64.421875 73.960938 64.359375 73.84375 64.320312 C 73.546875 64.230469 73.199219 64.3125 72.949219 64.558594 C 72.929688 64.582031 72.910156 64.597656 72.894531 64.621094 L 69.535156 67.972656 C 69.1875 68.316406 69.164062 68.859375 69.484375 69.179688 L 72.644531 72.34375 C 72.964844 72.664062 73.507812 72.644531 73.851562 72.296875 "/></g></g></g><g clip-rule="nonzero" clip-path="url(#clip82)"><g clip-rule="nonzero" clip-path="url(#clip83)"><g clip-rule="nonzero" clip-path="url(#clip84)"><path style=" stroke:none;fill-rule:nonzero;fill:rgb(100%,8.628845%,8.628845%);fill-opacity:1;" d="M 78.167969 62.402344 L 82.050781 58.515625 C 82.382812 58.1875 82.914062 58.1875 83.242188 58.515625 L 83.3125 58.585938 C 83.644531 58.917969 83.644531 59.449219 83.3125 59.777344 L 79.429688 63.664062 C 79.101562 63.992188 78.566406 63.992188 78.234375 63.664062 L 78.167969 63.59375 C 77.835938 63.261719 77.839844 62.730469 78.167969 62.402344 "/></g></g></g><g clip-rule="nonzero" clip-path="url(#clip85)"><g clip-rule="nonzero" clip-path="url(#clip86)"><g clip-rule="nonzero" clip-path="url(#clip87)"><path style=" stroke:none;fill-rule:nonzero;fill:rgb(100%,8.628845%,8.628845%);fill-opacity:1;" d="M 79.097656 48.65625 L 82.984375 44.769531 C 83.3125 44.441406 83.84375 44.445312 84.171875 44.773438 L 84.246094 44.84375 C 84.574219 45.171875 84.578125 45.707031 84.25 46.035156 L 80.363281 49.921875 C 80.035156 50.25 79.496094 50.25 79.167969 49.921875 L 79.097656 49.847656 C 78.769531 49.519531 78.769531 48.984375 79.097656 48.65625 "/></g></g></g><g clip-rule="nonzero" clip-path="url(#clip88)"><g clip-rule="nonzero" clip-path="url(#clip89)"><g clip-rule="nonzero" clip-path="url(#clip90)"><path style=" stroke:none;fill-rule:nonzero;fill:rgb(100%,8.628845%,8.628845%);fill-opacity:1;" d="M 74.253906 56.761719 L 72.257812 54.761719 L 74.417969 52.605469 L 76.414062 54.605469 Z M 74.785156 58.554688 C 74.789062 58.550781 74.789062 58.550781 74.789062 58.550781 L 78.203125 55.136719 C 78.546875 54.792969 78.570312 54.25 78.25 53.929688 L 75.128906 50.808594 C 75.117188 50.792969 75.105469 50.78125 75.09375 50.769531 C 75.003906 50.679688 74.890625 50.613281 74.777344 50.578125 C 74.476562 50.484375 74.128906 50.5625 73.878906 50.816406 C 73.859375 50.835938 73.839844 50.855469 73.824219 50.875 L 70.46875 54.226562 C 70.117188 54.574219 70.101562 55.113281 70.417969 55.4375 L 73.574219 58.597656 C 73.898438 58.921875 74.441406 58.902344 74.785156 58.554688 "/></g></g></g><g clip-rule="nonzero" clip-path="url(#clip91)"><g clip-rule="nonzero" clip-path="url(#clip92)"><g clip-rule="nonzero" clip-path="url(#clip93)"><path style=" stroke:none;fill-rule:nonzero;fill:rgb(100%,8.628845%,8.628845%);fill-opacity:1;" d="M 64.421875 63.332031 L 68.304688 59.445312 C 68.632812 59.117188 69.171875 59.117188 69.5 59.445312 L 69.570312 59.519531 C 69.898438 59.847656 69.898438 60.382812 69.570312 60.710938 L 65.6875 64.597656 C 65.355469 64.925781 64.820312 64.925781 64.492188 64.597656 L 64.421875 64.523438 C 64.09375 64.195312 64.089844 63.660156 64.421875 63.332031 "/></g></g></g><g clip-rule="nonzero" clip-path="url(#clip94)"><g clip-rule="nonzero" clip-path="url(#clip95)"><g clip-rule="nonzero" clip-path="url(#clip96)"><path style=" stroke:none;fill-rule:nonzero;fill:rgb(100%,8.628845%,8.628845%);fill-opacity:1;" d="M 49.746094 78.007812 L 53.628906 74.125 C 53.960938 73.792969 54.492188 73.796875 54.820312 74.125 L 54.894531 74.195312 C 55.222656 74.523438 55.226562 75.058594 54.894531 75.390625 L 51.011719 79.273438 C 50.679688 79.605469 50.144531 79.601562 49.816406 79.273438 L 49.746094 79.199219 C 49.417969 78.871094 49.414062 78.339844 49.746094 78.007812 "/></g></g></g><g clip-rule="nonzero" clip-path="url(#clip97)"><g clip-rule="nonzero" clip-path="url(#clip98)"><g clip-rule="nonzero" clip-path="url(#clip99)"><path style=" stroke:none;fill-rule:nonzero;fill:rgb(100%,8.628845%,8.628845%);fill-opacity:1;" d="M 75.386719 42.816406 L 73.390625 40.816406 L 75.546875 38.660156 L 77.542969 40.65625 Z M 75.917969 44.605469 L 79.335938 41.191406 C 79.683594 40.84375 79.703125 40.300781 79.382812 39.980469 L 76.261719 36.859375 C 76.25 36.847656 76.238281 36.835938 76.226562 36.824219 C 76.132812 36.730469 76.027344 36.667969 75.910156 36.632812 C 75.613281 36.535156 75.261719 36.617188 75.011719 36.867188 C 74.992188 36.886719 74.972656 36.910156 74.957031 36.929688 L 71.597656 40.28125 C 71.253906 40.625 71.230469 41.167969 71.550781 41.488281 L 74.710938 44.652344 C 75.03125 44.972656 75.574219 44.953125 75.917969 44.605469 "/></g></g></g><g clip-rule="nonzero" clip-path="url(#clip100)"><g clip-rule="nonzero" clip-path="url(#clip101)"><g clip-rule="nonzero" clip-path="url(#clip102)"><path style=" stroke:none;fill-rule:nonzero;fill:rgb(100%,8.628845%,8.628845%);fill-opacity:1;" d="M 45.628906 72.570312 L 43.632812 70.574219 L 45.792969 68.414062 L 47.789062 70.410156 Z M 46.164062 74.363281 C 46.164062 74.363281 46.164062 74.363281 46.164062 74.359375 L 49.578125 70.945312 C 49.925781 70.601562 49.945312 70.058594 49.625 69.738281 L 46.503906 66.617188 C 46.492188 66.605469 46.484375 66.589844 46.472656 66.578125 C 46.378906 66.488281 46.269531 66.425781 46.152344 66.386719 C 45.855469 66.292969 45.507812 66.371094 45.253906 66.625 C 45.234375 66.644531 45.21875 66.664062 45.199219 66.683594 L 41.84375 70.035156 C 41.496094 70.382812 41.476562 70.925781 41.796875 71.246094 L 44.953125 74.410156 C 45.273438 74.730469 45.816406 74.710938 46.164062 74.363281 "/></g></g></g><g clip-rule="nonzero" clip-path="url(#clip103)"><g clip-rule="nonzero" clip-path="url(#clip104)"><g clip-rule="nonzero" clip-path="url(#clip105)"><path style=" stroke:none;fill-rule:nonzero;fill:rgb(100%,8.628845%,8.628845%);fill-opacity:1;" d="M 60.507812 57.691406 L 58.511719 55.695312 L 60.667969 53.539062 L 62.664062 55.535156 Z M 61.039062 59.484375 C 61.042969 59.480469 61.042969 59.480469 61.042969 59.480469 L 64.457031 56.066406 C 64.804688 55.722656 64.824219 55.179688 64.503906 54.859375 L 61.382812 51.738281 C 61.371094 51.726562 61.359375 51.710938 61.351562 51.699219 C 61.257812 51.609375 61.148438 51.546875 61.03125 51.507812 C 60.734375 51.414062 60.382812 51.496094 60.132812 51.746094 C 60.113281 51.765625 60.097656 51.785156 60.078125 51.808594 L 56.71875 55.160156 C 56.375 55.503906 56.351562 56.046875 56.671875 56.367188 L 59.832031 59.53125 C 60.152344 59.851562 60.695312 59.832031 61.039062 59.484375 "/></g></g></g><g clip-rule="nonzero" clip-path="url(#clip106)"><g clip-rule="nonzero" clip-path="url(#clip107)"><g clip-rule="nonzero" clip-path="url(#clip108)"><path style=" stroke:none;fill-rule:nonzero;fill:rgb(100%,8.628845%,8.628845%);fill-opacity:1;" d="M 65.351562 49.585938 L 69.234375 45.703125 C 69.566406 45.371094 70.101562 45.375 70.429688 45.703125 L 70.5 45.773438 C 70.828125 46.101562 70.832031 46.636719 70.5 46.96875 L 66.617188 50.851562 C 66.289062 51.179688 65.75 51.179688 65.421875 50.851562 L 65.351562 50.777344 C 65.023438 50.449219 65.023438 49.914062 65.351562 49.585938 "/></g></g></g><g clip-rule="nonzero" clip-path="url(#clip109)"><g clip-rule="nonzero" clip-path="url(#clip110)"><g clip-rule="nonzero" clip-path="url(#clip111)"><path style=" stroke:none;fill-rule:nonzero;fill:rgb(100%,8.628845%,8.628845%);fill-opacity:1;" d="M 63.488281 77.078125 L 67.375 73.191406 C 67.703125 72.863281 68.234375 72.863281 68.566406 73.195312 L 68.636719 73.261719 C 68.96875 73.59375 68.96875 74.125 68.640625 74.453125 L 64.753906 78.339844 C 64.425781 78.667969 63.890625 78.671875 63.558594 78.339844 L 63.488281 78.269531 C 63.160156 77.941406 63.160156 77.40625 63.488281 77.078125 "/></g></g></g><g clip-rule="nonzero" clip-path="url(#clip112)"><g clip-rule="nonzero" clip-path="url(#clip113)"><g clip-rule="nonzero" clip-path="url(#clip114)"><path style=" stroke:none;fill-rule:nonzero;fill:rgb(100%,8.628845%,8.628845%);fill-opacity:1;" d="M 59.578125 71.441406 L 57.582031 69.4375 L 59.738281 67.285156 L 61.734375 69.28125 Z M 60.109375 73.230469 L 63.523438 69.816406 C 63.875 69.464844 63.894531 68.925781 63.574219 68.605469 L 60.453125 65.484375 C 60.441406 65.472656 60.429688 65.457031 60.414062 65.445312 C 60.324219 65.355469 60.214844 65.289062 60.101562 65.253906 C 59.800781 65.160156 59.453125 65.242188 59.203125 65.492188 C 59.183594 65.511719 59.164062 65.53125 59.148438 65.550781 L 55.789062 68.902344 C 55.445312 69.25 55.421875 69.792969 55.742188 70.113281 L 58.898438 73.273438 C 59.21875 73.597656 59.761719 73.578125 60.109375 73.230469 "/></g></g></g><g clip-rule="nonzero" clip-path="url(#clip115)"><g clip-rule="nonzero" clip-path="url(#clip116)"><g clip-rule="nonzero" clip-path="url(#clip117)"><path style=" stroke:none;fill-rule:nonzero;fill:rgb(100%,8.628845%,8.628845%);fill-opacity:1;" d="M 50.675781 64.261719 L 54.5625 60.375 C 54.890625 60.046875 55.421875 60.050781 55.75 60.378906 L 55.824219 60.449219 C 56.152344 60.777344 56.15625 61.3125 55.828125 61.640625 L 51.941406 65.527344 C 51.613281 65.855469 51.074219 65.855469 50.746094 65.527344 L 50.675781 65.457031 C 50.347656 65.128906 50.347656 64.589844 50.675781 64.261719 "/></g></g></g><g clip-rule="nonzero" clip-path="url(#clip118)"><g clip-rule="nonzero" clip-path="url(#clip119)"><g clip-rule="nonzero" clip-path="url(#clip120)"><path style=" stroke:none;fill-rule:nonzero;fill:rgb(100%,8.628845%,8.628845%);fill-opacity:1;" d="M 47.820312 92.746094 L 51.707031 88.859375 C 52.035156 88.53125 52.570312 88.527344 52.902344 88.859375 L 52.96875 88.929688 C 53.300781 89.261719 53.296875 89.792969 52.96875 90.121094 L 49.082031 94.007812 C 48.753906 94.335938 48.222656 94.335938 47.894531 94.007812 L 47.824219 93.9375 C 47.492188 93.605469 47.492188 93.074219 47.820312 92.746094 "/></g></g></g><g clip-rule="nonzero" clip-path="url(#clip121)"><g clip-rule="nonzero" clip-path="url(#clip122)"><g clip-rule="nonzero" clip-path="url(#clip123)"><path style=" stroke:none;fill-rule:nonzero;fill:rgb(100%,8.628845%,8.628845%);fill-opacity:1;" d="M 43.90625 87.109375 L 41.910156 85.105469 L 44.070312 82.953125 L 46.066406 84.949219 Z M 44.441406 88.898438 C 44.441406 88.898438 44.441406 88.898438 44.445312 88.894531 L 47.859375 85.480469 C 48.207031 85.136719 48.226562 84.59375 47.90625 84.273438 L 44.785156 81.152344 C 44.773438 81.140625 44.761719 81.128906 44.746094 81.113281 C 44.65625 81.023438 44.546875 80.957031 44.433594 80.921875 C 44.136719 80.828125 43.785156 80.910156 43.535156 81.160156 C 43.515625 81.179688 43.496094 81.199219 43.480469 81.21875 L 40.121094 84.574219 C 39.777344 84.917969 39.753906 85.460938 40.074219 85.78125 L 43.230469 88.941406 C 43.554688 89.265625 44.097656 89.246094 44.441406 88.898438 "/></g></g></g><g clip-rule="nonzero" clip-path="url(#clip124)"><g clip-rule="nonzero" clip-path="url(#clip125)"><g clip-rule="nonzero" clip-path="url(#clip126)"><path style=" stroke:none;fill-rule:nonzero;fill:rgb(100%,8.628845%,8.628845%);fill-opacity:1;" d="M 35.003906 79.929688 L 38.890625 76.042969 C 39.21875 75.714844 39.757812 75.714844 40.085938 76.042969 L 40.15625 76.117188 C 40.484375 76.445312 40.484375 76.980469 40.15625 77.308594 L 36.269531 81.195312 C 35.941406 81.523438 35.410156 81.523438 35.082031 81.195312 L 35.007812 81.121094 C 34.679688 80.792969 34.675781 80.257812 35.003906 79.929688 "/></g></g></g><g clip-rule="nonzero" clip-path="url(#clip127)"><g clip-rule="nonzero" clip-path="url(#clip128)"><g clip-rule="nonzero" clip-path="url(#clip129)"><path style=" stroke:none;fill-rule:nonzero;fill:rgb(100%,8.628845%,8.628845%);fill-opacity:1;" d="M 2.757812 53.375 L 50.019531 100.636719 L 97.28125 53.375 L 50.019531 6.113281 Z M 50.019531 103.222656 L 0.167969 53.375 L 50.019531 3.523438 L 99.867188 53.375 L 50.019531 103.222656 "/></g></g></g><g style="fill:rgb(0%,0%,0%);fill-opacity:1;"><g transform="translate(100.043354, 49.185865)"><path style="stroke:none;" d="M 6.265625 -4.328125 C 3.109375 -7.390625 1.53125 -11.269531 1.53125 -15.96875 C 1.53125 -20.675781 3.109375 -24.5625 6.265625 -27.625 C 9.421875 -30.6875 13.273438 -32.21875 17.828125 -32.21875 C 21.359375 -32.21875 24.492188 -31.28125 27.234375 -29.40625 C 29.984375 -27.539062 31.898438 -24.945312 32.984375 -21.625 L 23.75 -21.625 C 22.550781 -23.945312 20.625 -25.109375 17.96875 -25.109375 C 15.3125 -25.109375 13.21875 -24.28125 11.6875 -22.625 C 10.164062 -20.96875 9.40625 -18.75 9.40625 -15.96875 C 9.40625 -13.195312 10.164062 -10.976562 11.6875 -9.3125 C 13.21875 -7.65625 15.3125 -6.828125 17.96875 -6.828125 C 20.625 -6.828125 22.550781 -7.988281 23.75 -10.3125 L 32.984375 -10.3125 C 31.898438 -7 29.984375 -4.40625 27.234375 -2.53125 C 24.492188 -0.664062 21.359375 0.265625 17.828125 0.265625 C 13.273438 0.265625 9.421875 -1.265625 6.265625 -4.328125 Z M 6.265625 -4.328125 "/></g></g><g style="fill:rgb(0%,0%,0%);fill-opacity:1;"><g transform="translate(132.568409, 49.185865)"><path style="stroke:none;" d="M 23.90625 -9.3125 C 25.4375 -10.976562 26.203125 -13.195312 26.203125 -15.96875 C 26.203125 -18.75 25.4375 -20.96875 23.90625 -22.625 C 22.382812 -24.28125 20.347656 -25.109375 17.796875 -25.109375 C 15.253906 -25.109375 13.21875 -24.28125 11.6875 -22.625 C 10.164062 -20.96875 9.40625 -18.75 9.40625 -15.96875 C 9.40625 -13.195312 10.164062 -10.976562 11.6875 -9.3125 C 13.21875 -7.65625 15.253906 -6.828125 17.796875 -6.828125 C 20.347656 -6.828125 22.382812 -7.65625 23.90625 -9.3125 Z M 6.265625 -4.296875 C 3.109375 -7.378906 1.53125 -11.269531 1.53125 -15.96875 C 1.53125 -20.675781 3.109375 -24.5625 6.265625 -27.625 C 9.421875 -30.6875 13.28125 -32.21875 17.84375 -32.21875 C 22.414062 -32.21875 26.265625 -30.6875 29.390625 -27.625 C 32.515625 -24.5625 34.078125 -20.675781 34.078125 -15.96875 C 34.078125 -11.269531 32.503906 -7.378906 29.359375 -4.296875 C 26.222656 -1.222656 22.378906 0.3125 17.828125 0.3125 C 13.273438 0.3125 9.421875 -1.222656 6.265625 -4.296875 Z M 6.265625 -4.296875 "/></g></g><g style="fill:rgb(0%,0%,0%);fill-opacity:1;"><g transform="translate(166.179171, 49.185865)"><path style="stroke:none;" d="M 11.125 -5.875 L 14.578125 -5.875 C 17.523438 -5.875 19.84375 -6.78125 21.53125 -8.59375 C 23.226562 -10.40625 24.078125 -12.832031 24.078125 -15.875 C 24.078125 -18.925781 23.226562 -21.359375 21.53125 -23.171875 C 19.84375 -24.984375 17.523438 -25.890625 14.578125 -25.890625 L 11.125 -25.890625 Z M 14.578125 -31.765625 C 19.640625 -31.765625 23.800781 -30.289062 27.0625 -27.34375 C 30.320312 -24.40625 31.953125 -20.59375 31.953125 -15.90625 C 31.953125 -11.21875 30.320312 -7.394531 27.0625 -4.4375 C 23.800781 -1.476562 19.640625 0 14.578125 0 L 3.390625 0 L 3.390625 -31.765625 Z M 14.578125 -31.765625 "/></g></g><g style="fill:rgb(0%,0%,0%);fill-opacity:1;"><g transform="translate(197.573274, 49.185865)"><path style="stroke:none;" d="M 22.625 -31.859375 L 22.625 -25.96875 L 11.125 -25.96875 L 11.125 -19.140625 L 21.265625 -19.140625 L 21.265625 -13.265625 L 11.125 -13.265625 L 11.125 -5.875 L 22.625 -5.875 L 22.625 0 L 3.390625 0 L 3.390625 -31.859375 Z M 22.625 -31.859375 "/></g></g><g style="fill:rgb(0%,0%,0%);fill-opacity:1;"><g transform="translate(221.412686, 49.185865)"><path style="stroke:none;" d="M 10.046875 -4.21875 C 10.046875 -3.03125 9.640625 -2.03125 8.828125 -1.21875 C 8.015625 -0.40625 7.007812 0 5.8125 0 C 4.625 0 3.617188 -0.40625 2.796875 -1.21875 C 1.984375 -2.03125 1.578125 -3.03125 1.578125 -4.21875 C 1.578125 -5.414062 1.984375 -6.421875 2.796875 -7.234375 C 3.617188 -8.054688 4.625 -8.46875 5.8125 -8.46875 C 7.007812 -8.46875 8.015625 -8.054688 8.828125 -7.234375 C 9.640625 -6.421875 10.046875 -5.414062 10.046875 -4.21875 Z M 10.046875 -4.21875 "/></g></g><g style="fill:rgb(0%,0%,0%);fill-opacity:1;"><g transform="translate(231.00221, 49.185865)"><path style="stroke:none;" d="M 27.609375 -22.03125 C 27.609375 -19.894531 26.835938 -17.832031 25.296875 -15.84375 C 24.484375 -14.8125 23.269531 -13.972656 21.65625 -13.328125 C 20.039062 -12.679688 18.128906 -12.359375 15.921875 -12.359375 L 11.125 -12.359375 L 11.125 0 L 3.390625 0 L 3.390625 -31.765625 L 15.921875 -31.765625 C 19.609375 -31.765625 22.476562 -30.8125 24.53125 -28.90625 C 26.582031 -27.007812 27.609375 -24.71875 27.609375 -22.03125 Z M 11.125 -18.234375 L 15.921875 -18.234375 C 17.097656 -18.234375 18.023438 -18.578125 18.703125 -19.265625 C 19.390625 -19.960938 19.734375 -20.878906 19.734375 -22.015625 C 19.734375 -23.148438 19.382812 -24.078125 18.6875 -24.796875 C 17.988281 -25.523438 17.066406 -25.890625 15.921875 -25.890625 L 11.125 -25.890625 Z M 11.125 -18.234375 "/></g></g><g style="fill:rgb(0%,0%,0%);fill-opacity:1;"><g transform="translate(257.827299, 49.185865)"><path style="stroke:none;" d="M 11.125 -12.359375 L 11.125 0 L 3.390625 0 L 3.390625 -31.765625 L 15.921875 -31.765625 C 19.609375 -31.765625 22.476562 -30.8125 24.53125 -28.90625 C 26.582031 -27.007812 27.609375 -24.71875 27.609375 -22.03125 C 27.609375 -20.195312 27.046875 -18.40625 25.921875 -16.65625 C 24.804688 -14.90625 22.984375 -13.664062 20.453125 -12.9375 L 28.234375 0 L 19.1875 0 L 12.03125 -12.359375 Z M 11.125 -25.890625 L 11.125 -18.234375 L 15.921875 -18.234375 C 17.097656 -18.234375 18.023438 -18.578125 18.703125 -19.265625 C 19.390625 -19.960938 19.734375 -20.878906 19.734375 -22.015625 C 19.734375 -23.148438 19.382812 -24.078125 18.6875 -24.796875 C 17.988281 -25.523438 17.066406 -25.890625 15.921875 -25.890625 Z M 11.125 -25.890625 "/></g></g><g style="fill:rgb(0%,0%,0%);fill-opacity:1;"><g transform="translate(286.009534, 49.185865)"><path style="stroke:none;" d="M 22.625 -31.859375 L 22.625 -25.96875 L 11.125 -25.96875 L 11.125 -19.140625 L 21.265625 -19.140625 L 21.265625 -13.265625 L 11.125 -13.265625 L 11.125 -5.875 L 22.625 -5.875 L 22.625 0 L 3.390625 0 L 3.390625 -31.859375 Z M 22.625 -31.859375 "/></g></g><g style="fill:rgb(0%,0%,0%);fill-opacity:1;"><g transform="translate(309.848947, 49.185865)"><path style="stroke:none;" d="M 14.15625 -26.109375 C 13.195312 -26.109375 12.40625 -25.851562 11.78125 -25.34375 C 11.164062 -24.832031 10.859375 -24.09375 10.859375 -23.125 C 10.859375 -22.15625 11.144531 -21.375 11.71875 -20.78125 C 12.289062 -20.195312 13.035156 -19.742188 13.953125 -19.421875 C 14.878906 -19.109375 15.90625 -18.804688 17.03125 -18.515625 C 18.164062 -18.234375 19.289062 -17.890625 20.40625 -17.484375 C 21.519531 -17.078125 22.535156 -16.570312 23.453125 -15.96875 C 24.378906 -15.363281 25.128906 -14.507812 25.703125 -13.40625 C 26.273438 -12.3125 26.5625 -10.992188 26.5625 -9.453125 C 26.5625 -6.773438 25.46875 -4.476562 23.28125 -2.5625 C 21.09375 -0.644531 18.210938 0.3125 14.640625 0.3125 C 11.066406 0.3125 8.1875 -0.546875 6 -2.265625 C 3.8125 -3.984375 2.71875 -6.425781 2.71875 -9.59375 L 10.953125 -9.59375 C 11.160156 -7.0625 12.457031 -5.796875 14.84375 -5.796875 C 15.957031 -5.796875 16.832031 -6.085938 17.46875 -6.671875 C 18.101562 -7.265625 18.421875 -8.007812 18.421875 -8.90625 C 18.421875 -9.8125 18.132812 -10.550781 17.5625 -11.125 C 16.988281 -11.695312 16.238281 -12.148438 15.3125 -12.484375 C 14.394531 -12.816406 13.367188 -13.125 12.234375 -13.40625 C 11.109375 -13.695312 9.984375 -14.050781 8.859375 -14.46875 C 7.742188 -14.894531 6.726562 -15.398438 5.8125 -15.984375 C 4.894531 -16.578125 4.148438 -17.425781 3.578125 -18.53125 C 3.003906 -19.632812 2.71875 -20.9375 2.71875 -22.4375 C 2.71875 -25.394531 3.816406 -27.765625 6.015625 -29.546875 C 8.222656 -31.328125 11.035156 -32.21875 14.453125 -32.21875 C 17.878906 -32.21875 20.644531 -31.441406 22.75 -29.890625 C 24.863281 -28.335938 25.96875 -25.882812 26.0625 -22.53125 L 17.640625 -22.53125 C 17.523438 -23.675781 17.15625 -24.554688 16.53125 -25.171875 C 15.914062 -25.796875 15.125 -26.109375 14.15625 -26.109375 Z M 14.15625 -26.109375 "/></g></g><g style="fill:rgb(0%,0%,0%);fill-opacity:1;"><g transform="translate(337.081174, 49.185865)"><path style="stroke:none;" d="M 14.15625 -26.109375 C 13.195312 -26.109375 12.40625 -25.851562 11.78125 -25.34375 C 11.164062 -24.832031 10.859375 -24.09375 10.859375 -23.125 C 10.859375 -22.15625 11.144531 -21.375 11.71875 -20.78125 C 12.289062 -20.195312 13.035156 -19.742188 13.953125 -19.421875 C 14.878906 -19.109375 15.90625 -18.804688 17.03125 -18.515625 C 18.164062 -18.234375 19.289062 -17.890625 20.40625 -17.484375 C 21.519531 -17.078125 22.535156 -16.570312 23.453125 -15.96875 C 24.378906 -15.363281 25.128906 -14.507812 25.703125 -13.40625 C 26.273438 -12.3125 26.5625 -10.992188 26.5625 -9.453125 C 26.5625 -6.773438 25.46875 -4.476562 23.28125 -2.5625 C 21.09375 -0.644531 18.210938 0.3125 14.640625 0.3125 C 11.066406 0.3125 8.1875 -0.546875 6 -2.265625 C 3.8125 -3.984375 2.71875 -6.425781 2.71875 -9.59375 L 10.953125 -9.59375 C 11.160156 -7.0625 12.457031 -5.796875 14.84375 -5.796875 C 15.957031 -5.796875 16.832031 -6.085938 17.46875 -6.671875 C 18.101562 -7.265625 18.421875 -8.007812 18.421875 -8.90625 C 18.421875 -9.8125 18.132812 -10.550781 17.5625 -11.125 C 16.988281 -11.695312 16.238281 -12.148438 15.3125 -12.484375 C 14.394531 -12.816406 13.367188 -13.125 12.234375 -13.40625 C 11.109375 -13.695312 9.984375 -14.050781 8.859375 -14.46875 C 7.742188 -14.894531 6.726562 -15.398438 5.8125 -15.984375 C 4.894531 -16.578125 4.148438 -17.425781 3.578125 -18.53125 C 3.003906 -19.632812 2.71875 -20.9375 2.71875 -22.4375 C 2.71875 -25.394531 3.816406 -27.765625 6.015625 -29.546875 C 8.222656 -31.328125 11.035156 -32.21875 14.453125 -32.21875 C 17.878906 -32.21875 20.644531 -31.441406 22.75 -29.890625 C 24.863281 -28.335938 25.96875 -25.882812 26.0625 -22.53125 L 17.640625 -22.53125 C 17.523438 -23.675781 17.15625 -24.554688 16.53125 -25.171875 C 15.914062 -25.796875 15.125 -26.109375 14.15625 -26.109375 Z M 14.15625 -26.109375 "/></g></g><g style="fill:rgb(100%,8.628845%,8.628845%);fill-opacity:1;"><g transform="translate(100.043354, 73.729651)"><path style="stroke:none;" d="M 0.796875 0.078125 C 0.148438 0.0976562 -0.171875 -0.125 -0.171875 -0.59375 C -0.171875 -0.789062 -0.117188 -0.941406 -0.015625 -1.046875 C 0.0859375 -1.160156 0.253906 -1.222656 0.484375 -1.234375 L 0.890625 -1.265625 C 1.234375 -1.285156 1.492188 -1.394531 1.671875 -1.59375 C 1.847656 -1.789062 1.9375 -2.097656 1.9375 -2.515625 L 1.9375 -8.171875 C 1.9375 -8.410156 2.007812 -8.601562 2.15625 -8.75 C 2.300781 -8.894531 2.5 -8.96875 2.75 -8.96875 C 3 -8.96875 3.195312 -8.894531 3.34375 -8.75 C 3.488281 -8.601562 3.5625 -8.410156 3.5625 -8.171875 L 3.5625 -2.515625 C 3.5625 -0.921875 2.773438 -0.0664062 1.203125 0.046875 Z M 0.796875 0.078125 "/></g></g><g style="fill:rgb(100%,8.628845%,8.628845%);fill-opacity:1;"><g transform="translate(106.212273, 73.729651)"><path style="stroke:none;" d="M 4.9375 0.109375 C 4.0625 0.109375 3.304688 -0.0703125 2.671875 -0.4375 C 2.035156 -0.8125 1.546875 -1.34375 1.203125 -2.03125 C 0.859375 -2.726562 0.6875 -3.539062 0.6875 -4.46875 C 0.6875 -5.394531 0.851562 -6.195312 1.1875 -6.875 C 1.53125 -7.5625 2.019531 -8.09375 2.65625 -8.46875 C 3.300781 -8.84375 4.0625 -9.03125 4.9375 -9.03125 C 5.800781 -9.03125 6.550781 -8.84375 7.1875 -8.46875 C 7.820312 -8.09375 8.3125 -7.5625 8.65625 -6.875 C 9 -6.195312 9.171875 -5.394531 9.171875 -4.46875 C 9.171875 -3.539062 8.992188 -2.726562 8.640625 -2.03125 C 8.296875 -1.34375 7.804688 -0.8125 7.171875 -0.4375 C 6.535156 -0.0703125 5.789062 0.109375 4.9375 0.109375 Z M 4.9375 -1.1875 C 5.75 -1.1875 6.382812 -1.46875 6.84375 -2.03125 C 7.300781 -2.59375 7.53125 -3.40625 7.53125 -4.46875 C 7.53125 -5.519531 7.300781 -6.320312 6.84375 -6.875 C 6.382812 -7.4375 5.75 -7.71875 4.9375 -7.71875 C 4.101562 -7.71875 3.457031 -7.4375 3 -6.875 C 2.539062 -6.320312 2.3125 -5.519531 2.3125 -4.46875 C 2.3125 -3.40625 2.539062 -2.59375 3 -2.03125 C 3.457031 -1.46875 4.101562 -1.1875 4.9375 -1.1875 Z M 4.9375 -1.1875 "/></g></g><g style="fill:rgb(100%,8.628845%,8.628845%);fill-opacity:1;"><g transform="translate(117.703149, 73.729651)"><path style="stroke:none;" d="M 7.921875 -8.96875 C 8.171875 -8.96875 8.363281 -8.894531 8.5 -8.75 C 8.644531 -8.601562 8.71875 -8.410156 8.71875 -8.171875 L 8.71875 -0.75 C 8.71875 -0.5 8.644531 -0.296875 8.5 -0.140625 C 8.351562 0.00390625 8.160156 0.078125 7.921875 0.078125 C 7.679688 0.078125 7.488281 0.00390625 7.34375 -0.140625 C 7.195312 -0.296875 7.125 -0.5 7.125 -0.75 L 7.125 -3.875 L 2.5625 -3.875 L 2.5625 -0.75 C 2.5625 -0.5 2.488281 -0.296875 2.34375 -0.140625 C 2.195312 0.00390625 2 0.078125 1.75 0.078125 C 1.519531 0.078125 1.328125 0.00390625 1.171875 -0.140625 C 1.023438 -0.296875 0.953125 -0.5 0.953125 -0.75 L 0.953125 -8.171875 C 0.953125 -8.410156 1.023438 -8.601562 1.171875 -8.75 C 1.316406 -8.894531 1.507812 -8.96875 1.75 -8.96875 C 2 -8.96875 2.195312 -8.894531 2.34375 -8.75 C 2.488281 -8.601562 2.5625 -8.410156 2.5625 -8.171875 L 2.5625 -5.1875 L 7.125 -5.1875 L 7.125 -8.171875 C 7.125 -8.410156 7.195312 -8.601562 7.34375 -8.75 C 7.488281 -8.894531 7.679688 -8.96875 7.921875 -8.96875 Z M 7.921875 -8.96875 "/></g></g><g style="fill:rgb(100%,8.628845%,8.628845%);fill-opacity:1;"><g transform="translate(129.029685, 73.729651)"><path style="stroke:none;" d="M 7.703125 -8.96875 C 7.941406 -8.96875 8.128906 -8.894531 8.265625 -8.75 C 8.410156 -8.601562 8.484375 -8.410156 8.484375 -8.171875 L 8.484375 -0.75 C 8.484375 -0.5 8.410156 -0.296875 8.265625 -0.140625 C 8.117188 0.00390625 7.929688 0.078125 7.703125 0.078125 C 7.441406 0.078125 7.238281 -0.0195312 7.09375 -0.21875 L 2.484375 -6.21875 L 2.484375 -0.75 C 2.484375 -0.5 2.414062 -0.296875 2.28125 -0.140625 C 2.144531 0.00390625 1.957031 0.078125 1.71875 0.078125 C 1.476562 0.078125 1.289062 0.00390625 1.15625 -0.140625 C 1.019531 -0.296875 0.953125 -0.5 0.953125 -0.75 L 0.953125 -8.171875 C 0.953125 -8.410156 1.023438 -8.601562 1.171875 -8.75 C 1.316406 -8.894531 1.507812 -8.96875 1.75 -8.96875 C 2.007812 -8.96875 2.207031 -8.875 2.34375 -8.6875 L 6.953125 -2.703125 L 6.953125 -8.171875 C 6.953125 -8.410156 7.019531 -8.601562 7.15625 -8.75 C 7.300781 -8.894531 7.484375 -8.96875 7.703125 -8.96875 Z M 7.703125 -8.96875 "/></g></g><g style="fill:rgb(100%,8.628845%,8.628845%);fill-opacity:1;"><g transform="translate(140.116042, 73.729651)"><path style="stroke:none;" d=""/></g></g><g style="fill:rgb(100%,8.628845%,8.628845%);fill-opacity:1;"><g transform="translate(145.185175, 73.729651)"><path style="stroke:none;" d="M 8.875 -8.96875 C 9.113281 -8.96875 9.300781 -8.894531 9.4375 -8.75 C 9.582031 -8.601562 9.65625 -8.410156 9.65625 -8.171875 L 9.65625 -0.6875 C 9.65625 -0.445312 9.585938 -0.257812 9.453125 -0.125 C 9.316406 0.0078125 9.140625 0.078125 8.921875 0.078125 C 8.703125 0.078125 8.53125 0.0078125 8.40625 -0.125 C 8.28125 -0.257812 8.21875 -0.445312 8.21875 -0.6875 L 8.21875 -5.890625 L 6.0625 -1.8125 C 5.96875 -1.632812 5.859375 -1.5 5.734375 -1.40625 C 5.617188 -1.320312 5.484375 -1.28125 5.328125 -1.28125 C 5.160156 -1.28125 5.019531 -1.320312 4.90625 -1.40625 C 4.789062 -1.488281 4.679688 -1.625 4.578125 -1.8125 L 2.421875 -5.828125 L 2.421875 -0.6875 C 2.421875 -0.457031 2.351562 -0.269531 2.21875 -0.125 C 2.082031 0.0078125 1.90625 0.078125 1.6875 0.078125 C 1.46875 0.078125 1.296875 0.0078125 1.171875 -0.125 C 1.046875 -0.257812 0.984375 -0.445312 0.984375 -0.6875 L 0.984375 -8.171875 C 0.984375 -8.410156 1.050781 -8.601562 1.1875 -8.75 C 1.332031 -8.894531 1.519531 -8.96875 1.75 -8.96875 C 2.082031 -8.96875 2.34375 -8.789062 2.53125 -8.4375 L 5.328125 -3.078125 L 8.125 -8.4375 C 8.3125 -8.789062 8.5625 -8.96875 8.875 -8.96875 Z M 8.875 -8.96875 "/></g></g><g style="fill:rgb(100%,8.628845%,8.628845%);fill-opacity:1;"><g transform="translate(157.459808, 73.729651)"><path style="stroke:none;" d="M 4.9375 0.109375 C 4.0625 0.109375 3.304688 -0.0703125 2.671875 -0.4375 C 2.035156 -0.8125 1.546875 -1.34375 1.203125 -2.03125 C 0.859375 -2.726562 0.6875 -3.539062 0.6875 -4.46875 C 0.6875 -5.394531 0.851562 -6.195312 1.1875 -6.875 C 1.53125 -7.5625 2.019531 -8.09375 2.65625 -8.46875 C 3.300781 -8.84375 4.0625 -9.03125 4.9375 -9.03125 C 5.800781 -9.03125 6.550781 -8.84375 7.1875 -8.46875 C 7.820312 -8.09375 8.3125 -7.5625 8.65625 -6.875 C 9 -6.195312 9.171875 -5.394531 9.171875 -4.46875 C 9.171875 -3.539062 8.992188 -2.726562 8.640625 -2.03125 C 8.296875 -1.34375 7.804688 -0.8125 7.171875 -0.4375 C 6.535156 -0.0703125 5.789062 0.109375 4.9375 0.109375 Z M 4.9375 -1.1875 C 5.75 -1.1875 6.382812 -1.46875 6.84375 -2.03125 C 7.300781 -2.59375 7.53125 -3.40625 7.53125 -4.46875 C 7.53125 -5.519531 7.300781 -6.320312 6.84375 -6.875 C 6.382812 -7.4375 5.75 -7.71875 4.9375 -7.71875 C 4.101562 -7.71875 3.457031 -7.4375 3 -6.875 C 2.539062 -6.320312 2.3125 -5.519531 2.3125 -4.46875 C 2.3125 -3.40625 2.539062 -2.59375 3 -2.03125 C 3.457031 -1.46875 4.101562 -1.1875 4.9375 -1.1875 Z M 4.9375 -1.1875 "/></g></g><g style="fill:rgb(100%,8.628845%,8.628845%);fill-opacity:1;"><g transform="translate(168.950683, 73.729651)"><path style="stroke:none;" d="M 7.75 -4.8125 C 7.945312 -4.8125 8.101562 -4.753906 8.21875 -4.640625 C 8.332031 -4.523438 8.390625 -4.378906 8.390625 -4.203125 L 8.390625 -1.484375 C 8.390625 -1.085938 8.335938 -0.8125 8.234375 -0.65625 C 8.140625 -0.5 7.9375 -0.367188 7.625 -0.265625 C 7.28125 -0.148438 6.882812 -0.0625 6.4375 0 C 6 0.0703125 5.570312 0.109375 5.15625 0.109375 C 4.238281 0.109375 3.441406 -0.0664062 2.765625 -0.421875 C 2.085938 -0.785156 1.570312 -1.3125 1.21875 -2 C 0.863281 -2.6875 0.6875 -3.507812 0.6875 -4.46875 C 0.6875 -5.394531 0.863281 -6.203125 1.21875 -6.890625 C 1.570312 -7.578125 2.078125 -8.101562 2.734375 -8.46875 C 3.398438 -8.84375 4.175781 -9.03125 5.0625 -9.03125 C 6.25 -9.03125 7.222656 -8.707031 7.984375 -8.0625 C 8.085938 -7.96875 8.160156 -7.875 8.203125 -7.78125 C 8.253906 -7.6875 8.28125 -7.578125 8.28125 -7.453125 C 8.28125 -7.273438 8.226562 -7.117188 8.125 -6.984375 C 8.019531 -6.859375 7.898438 -6.796875 7.765625 -6.796875 C 7.671875 -6.796875 7.582031 -6.8125 7.5 -6.84375 C 7.425781 -6.875 7.34375 -6.921875 7.25 -6.984375 C 6.875 -7.242188 6.523438 -7.425781 6.203125 -7.53125 C 5.878906 -7.644531 5.519531 -7.703125 5.125 -7.703125 C 4.195312 -7.703125 3.5 -7.425781 3.03125 -6.875 C 2.570312 -6.332031 2.34375 -5.53125 2.34375 -4.46875 C 2.34375 -2.269531 3.300781 -1.171875 5.21875 -1.171875 C 5.789062 -1.171875 6.363281 -1.253906 6.9375 -1.421875 L 6.9375 -3.65625 L 5.515625 -3.65625 C 5.304688 -3.65625 5.144531 -3.703125 5.03125 -3.796875 C 4.914062 -3.898438 4.859375 -4.046875 4.859375 -4.234375 C 4.859375 -4.421875 4.914062 -4.5625 5.03125 -4.65625 C 5.144531 -4.757812 5.304688 -4.8125 5.515625 -4.8125 Z M 7.75 -4.8125 "/></g></g><g style="fill:rgb(100%,8.628845%,8.628845%);fill-opacity:1;"><g transform="translate(179.860063, 73.729651)"><path style="stroke:none;" d="M 1.765625 0.078125 C 1.523438 0.078125 1.328125 0.00390625 1.171875 -0.140625 C 1.023438 -0.296875 0.953125 -0.5 0.953125 -0.75 L 0.953125 -8.171875 C 0.953125 -8.410156 1.023438 -8.601562 1.171875 -8.75 C 1.328125 -8.894531 1.523438 -8.96875 1.765625 -8.96875 C 2.023438 -8.96875 2.226562 -8.894531 2.375 -8.75 C 2.519531 -8.601562 2.59375 -8.410156 2.59375 -8.171875 L 2.59375 -0.75 C 2.59375 -0.5 2.519531 -0.296875 2.375 -0.140625 C 2.226562 0.00390625 2.023438 0.078125 1.765625 0.078125 Z M 1.765625 0.078125 "/></g></g><g style="fill:rgb(100%,8.628845%,8.628845%);fill-opacity:1;"><g transform="translate(185.055598, 73.729651)"><path style="stroke:none;" d=""/></g></g><g style="fill:rgb(100%,8.628845%,8.628845%);fill-opacity:1;"><g transform="translate(190.124728, 73.729651)"><path style="stroke:none;" d="M 1.4375 -2.75 C 1.195312 -2.75 1.015625 -2.800781 0.890625 -2.90625 C 0.765625 -3.019531 0.703125 -3.175781 0.703125 -3.375 C 0.703125 -3.570312 0.765625 -3.722656 0.890625 -3.828125 C 1.015625 -3.941406 1.195312 -4 1.4375 -4 L 4.046875 -4 C 4.285156 -4 4.46875 -3.941406 4.59375 -3.828125 C 4.71875 -3.722656 4.78125 -3.570312 4.78125 -3.375 C 4.78125 -3.175781 4.71875 -3.019531 4.59375 -2.90625 C 4.46875 -2.800781 4.285156 -2.75 4.046875 -2.75 Z M 1.4375 -2.75 "/></g></g><g style="fill:rgb(100%,8.628845%,8.628845%);fill-opacity:1;"><g transform="translate(197.254374, 73.729651)"><path style="stroke:none;" d=""/></g></g><g style="fill:rgb(100%,8.628845%,8.628845%);fill-opacity:1;"><g transform="translate(202.323504, 73.729651)"><path style="stroke:none;" d="M 1.75 0 C 1.5 0 1.300781 -0.0664062 1.15625 -0.203125 C 1.019531 -0.335938 0.953125 -0.523438 0.953125 -0.765625 L 0.953125 -8.140625 C 0.953125 -8.378906 1.019531 -8.566406 1.15625 -8.703125 C 1.300781 -8.835938 1.5 -8.90625 1.75 -8.90625 L 4.25 -8.90625 C 5.707031 -8.90625 6.835938 -8.515625 7.640625 -7.734375 C 8.441406 -6.960938 8.84375 -5.875 8.84375 -4.46875 C 8.84375 -3.050781 8.441406 -1.953125 7.640625 -1.171875 C 6.835938 -0.390625 5.707031 0 4.25 0 Z M 4.140625 -1.328125 C 6.191406 -1.328125 7.21875 -2.375 7.21875 -4.46875 C 7.21875 -6.539062 6.191406 -7.578125 4.140625 -7.578125 L 2.59375 -7.578125 L 2.59375 -1.328125 Z M 4.140625 -1.328125 "/></g></g><g style="fill:rgb(100%,8.628845%,8.628845%);fill-opacity:1;"><g transform="translate(213.498346, 73.729651)"><path style="stroke:none;" d="M 1.75 0 C 1.5 0 1.300781 -0.0664062 1.15625 -0.203125 C 1.019531 -0.335938 0.953125 -0.523438 0.953125 -0.765625 L 0.953125 -8.140625 C 0.953125 -8.378906 1.019531 -8.566406 1.15625 -8.703125 C 1.300781 -8.835938 1.5 -8.90625 1.75 -8.90625 L 6.3125 -8.90625 C 6.550781 -8.90625 6.738281 -8.847656 6.875 -8.734375 C 7.007812 -8.628906 7.078125 -8.476562 7.078125 -8.28125 C 7.078125 -8.070312 7.007812 -7.910156 6.875 -7.796875 C 6.738281 -7.679688 6.550781 -7.625 6.3125 -7.625 L 2.546875 -7.625 L 2.546875 -5.171875 L 6.0625 -5.171875 C 6.300781 -5.171875 6.488281 -5.113281 6.625 -5 C 6.757812 -4.894531 6.828125 -4.738281 6.828125 -4.53125 C 6.828125 -4.320312 6.757812 -4.160156 6.625 -4.046875 C 6.488281 -3.941406 6.300781 -3.890625 6.0625 -3.890625 L 2.546875 -3.890625 L 2.546875 -1.296875 L 6.3125 -1.296875 C 6.550781 -1.296875 6.738281 -1.238281 6.875 -1.125 C 7.007812 -1.007812 7.078125 -0.84375 7.078125 -0.625 C 7.078125 -0.425781 7.007812 -0.269531 6.875 -0.15625 C 6.738281 -0.0507812 6.550781 0 6.3125 0 Z M 1.75 0 "/></g></g><g style="fill:rgb(100%,8.628845%,8.628845%);fill-opacity:1;"><g transform="translate(222.587388, 73.729651)"><path style="stroke:none;" d="M 7.453125 -8.5625 C 7.578125 -8.84375 7.796875 -8.984375 8.109375 -8.984375 C 8.328125 -8.984375 8.519531 -8.914062 8.6875 -8.78125 C 8.851562 -8.644531 8.9375 -8.476562 8.9375 -8.28125 C 8.9375 -8.1875 8.910156 -8.082031 8.859375 -7.96875 L 5.359375 -0.4375 C 5.285156 -0.269531 5.171875 -0.140625 5.015625 -0.046875 C 4.859375 0.0351562 4.691406 0.078125 4.515625 0.078125 C 4.335938 0.078125 4.171875 0.0351562 4.015625 -0.046875 C 3.859375 -0.140625 3.742188 -0.269531 3.671875 -0.4375 L 0.171875 -7.96875 C 0.117188 -8.082031 0.09375 -8.179688 0.09375 -8.265625 C 0.09375 -8.472656 0.179688 -8.644531 0.359375 -8.78125 C 0.535156 -8.914062 0.734375 -8.984375 0.953125 -8.984375 C 1.085938 -8.984375 1.21875 -8.945312 1.34375 -8.875 C 1.46875 -8.800781 1.5625 -8.695312 1.625 -8.5625 L 4.53125 -2.09375 Z M 7.453125 -8.5625 "/></g></g><g style="fill:rgb(100%,8.628845%,8.628845%);fill-opacity:1;"><g transform="translate(233.256573, 73.729651)"><path style="stroke:none;" d=""/></g></g><g style="fill:rgb(100%,8.628845%,8.628845%);fill-opacity:1;"><g transform="translate(238.325702, 73.729651)"><path style="stroke:none;" d="M 1.765625 2.34375 C 1.554688 2.34375 1.378906 2.269531 1.234375 2.125 C 1.097656 1.976562 1.03125 1.800781 1.03125 1.59375 L 1.03125 -8.234375 C 1.03125 -8.453125 1.097656 -8.628906 1.234375 -8.765625 C 1.378906 -8.898438 1.554688 -8.96875 1.765625 -8.96875 C 1.972656 -8.96875 2.144531 -8.894531 2.28125 -8.75 C 2.425781 -8.613281 2.5 -8.441406 2.5 -8.234375 L 2.5 1.59375 C 2.5 1.8125 2.425781 1.988281 2.28125 2.125 C 2.144531 2.269531 1.972656 2.34375 1.765625 2.34375 Z M 1.765625 2.34375 "/></g></g><g style="fill:rgb(100%,8.628845%,8.628845%);fill-opacity:1;"><g transform="translate(243.495954, 73.729651)"><path style="stroke:none;" d=""/></g></g><g style="fill:rgb(100%,8.628845%,8.628845%);fill-opacity:1;"><g transform="translate(248.565083, 73.729651)"><path style="stroke:none;" d="M 4.640625 0.109375 C 3.421875 0.109375 2.492188 -0.203125 1.859375 -0.828125 C 1.222656 -1.460938 0.90625 -2.390625 0.90625 -3.609375 L 0.90625 -8.171875 C 0.90625 -8.410156 0.976562 -8.601562 1.125 -8.75 C 1.269531 -8.894531 1.460938 -8.96875 1.703125 -8.96875 C 1.953125 -8.96875 2.144531 -8.894531 2.28125 -8.75 C 2.425781 -8.601562 2.5 -8.410156 2.5 -8.171875 L 2.5 -3.515625 C 2.5 -2.742188 2.679688 -2.160156 3.046875 -1.765625 C 3.410156 -1.378906 3.941406 -1.1875 4.640625 -1.1875 C 5.328125 -1.1875 5.851562 -1.382812 6.21875 -1.78125 C 6.582031 -2.175781 6.765625 -2.753906 6.765625 -3.515625 L 6.765625 -8.171875 C 6.765625 -8.410156 6.832031 -8.601562 6.96875 -8.75 C 7.113281 -8.894531 7.3125 -8.96875 7.5625 -8.96875 C 7.800781 -8.96875 7.992188 -8.894531 8.140625 -8.75 C 8.285156 -8.601562 8.359375 -8.410156 8.359375 -8.171875 L 8.359375 -3.609375 C 8.359375 -2.398438 8.039062 -1.476562 7.40625 -0.84375 C 6.769531 -0.207031 5.847656 0.109375 4.640625 0.109375 Z M 4.640625 0.109375 "/></g></g><g style="fill:rgb(100%,8.628845%,8.628845%);fill-opacity:1;"><g transform="translate(259.474463, 73.729651)"><path style="stroke:none;" d="M 7.890625 -1.15625 C 8.023438 -1 8.09375 -0.84375 8.09375 -0.6875 C 8.09375 -0.476562 8.015625 -0.296875 7.859375 -0.140625 C 7.703125 0.00390625 7.519531 0.078125 7.3125 0.078125 C 7.101562 0.078125 6.921875 -0.015625 6.765625 -0.203125 L 4.203125 -3.390625 L 1.625 -0.203125 C 1.46875 -0.0234375 1.285156 0.0625 1.078125 0.0625 C 0.867188 0.0625 0.6875 -0.0078125 0.53125 -0.15625 C 0.375 -0.300781 0.296875 -0.476562 0.296875 -0.6875 C 0.296875 -0.851562 0.363281 -1.007812 0.5 -1.15625 L 3.25 -4.53125 L 0.609375 -7.75 C 0.484375 -7.882812 0.421875 -8.046875 0.421875 -8.234375 C 0.421875 -8.429688 0.492188 -8.601562 0.640625 -8.75 C 0.796875 -8.894531 0.972656 -8.96875 1.171875 -8.96875 C 1.378906 -8.96875 1.566406 -8.878906 1.734375 -8.703125 L 4.203125 -5.65625 L 6.65625 -8.703125 C 6.8125 -8.878906 6.992188 -8.96875 7.203125 -8.96875 C 7.410156 -8.96875 7.585938 -8.894531 7.734375 -8.75 C 7.890625 -8.601562 7.96875 -8.429688 7.96875 -8.234375 C 7.96875 -8.046875 7.90625 -7.882812 7.78125 -7.75 L 5.140625 -4.53125 Z M 7.890625 -1.15625 "/></g></g><g style="fill:rgb(100%,8.628845%,8.628845%);fill-opacity:1;"><g transform="translate(269.5116, 73.729651)"><path style="stroke:none;" d=""/></g></g><g style="fill:rgb(100%,8.628845%,8.628845%);fill-opacity:1;"><g transform="translate(274.580729, 73.729651)"><path style="stroke:none;" d="M 1.765625 2.34375 C 1.554688 2.34375 1.378906 2.269531 1.234375 2.125 C 1.097656 1.976562 1.03125 1.800781 1.03125 1.59375 L 1.03125 -8.234375 C 1.03125 -8.453125 1.097656 -8.628906 1.234375 -8.765625 C 1.378906 -8.898438 1.554688 -8.96875 1.765625 -8.96875 C 1.972656 -8.96875 2.144531 -8.894531 2.28125 -8.75 C 2.425781 -8.613281 2.5 -8.441406 2.5 -8.234375 L 2.5 1.59375 C 2.5 1.8125 2.425781 1.988281 2.28125 2.125 C 2.144531 2.269531 1.972656 2.34375 1.765625 2.34375 Z M 1.765625 2.34375 "/></g></g><g style="fill:rgb(100%,8.628845%,8.628845%);fill-opacity:1;"><g transform="translate(279.750981, 73.729651)"><path style="stroke:none;" d=""/></g></g><g style="fill:rgb(100%,8.628845%,8.628845%);fill-opacity:1;"><g transform="translate(284.82011, 73.729651)"><path style="stroke:none;" d="M 4.9375 0.109375 C 4.082031 0.109375 3.332031 -0.0703125 2.6875 -0.4375 C 2.039062 -0.8125 1.546875 -1.34375 1.203125 -2.03125 C 0.859375 -2.726562 0.6875 -3.539062 0.6875 -4.46875 C 0.6875 -5.394531 0.859375 -6.195312 1.203125 -6.875 C 1.546875 -7.5625 2.039062 -8.09375 2.6875 -8.46875 C 3.332031 -8.84375 4.082031 -9.03125 4.9375 -9.03125 C 5.5 -9.03125 6.023438 -8.945312 6.515625 -8.78125 C 7.003906 -8.613281 7.4375 -8.375 7.8125 -8.0625 C 7.914062 -7.976562 7.988281 -7.890625 8.03125 -7.796875 C 8.082031 -7.703125 8.109375 -7.585938 8.109375 -7.453125 C 8.109375 -7.273438 8.054688 -7.117188 7.953125 -6.984375 C 7.847656 -6.859375 7.722656 -6.796875 7.578125 -6.796875 C 7.410156 -6.796875 7.238281 -6.859375 7.0625 -6.984375 C 6.695312 -7.242188 6.359375 -7.425781 6.046875 -7.53125 C 5.742188 -7.644531 5.398438 -7.703125 5.015625 -7.703125 C 4.140625 -7.703125 3.472656 -7.425781 3.015625 -6.875 C 2.566406 -6.332031 2.34375 -5.53125 2.34375 -4.46875 C 2.34375 -3.394531 2.566406 -2.582031 3.015625 -2.03125 C 3.472656 -1.488281 4.140625 -1.21875 5.015625 -1.21875 C 5.378906 -1.21875 5.710938 -1.269531 6.015625 -1.375 C 6.328125 -1.488281 6.675781 -1.675781 7.0625 -1.9375 C 7.144531 -1.988281 7.226562 -2.03125 7.3125 -2.0625 C 7.40625 -2.09375 7.492188 -2.109375 7.578125 -2.109375 C 7.722656 -2.109375 7.847656 -2.046875 7.953125 -1.921875 C 8.054688 -1.796875 8.109375 -1.640625 8.109375 -1.453125 C 8.109375 -1.328125 8.082031 -1.210938 8.03125 -1.109375 C 7.988281 -1.015625 7.914062 -0.925781 7.8125 -0.84375 C 7.4375 -0.53125 7.003906 -0.289062 6.515625 -0.125 C 6.023438 0.03125 5.5 0.109375 4.9375 0.109375 Z M 4.9375 0.109375 "/></g></g><g style="fill:rgb(100%,8.628845%,8.628845%);fill-opacity:1;"><g transform="translate(295.034223, 73.729651)"><path style="stroke:none;" d="M 8.09375 -1.03125 C 8.1875 -0.875 8.234375 -0.722656 8.234375 -0.578125 C 8.234375 -0.390625 8.15625 -0.226562 8 -0.09375 C 7.851562 0.03125 7.671875 0.09375 7.453125 0.09375 C 7.316406 0.09375 7.1875 0.0625 7.0625 0 C 6.945312 -0.0625 6.847656 -0.160156 6.765625 -0.296875 L 5.078125 -2.84375 C 4.910156 -3.113281 4.734375 -3.300781 4.546875 -3.40625 C 4.359375 -3.519531 4.113281 -3.578125 3.8125 -3.578125 L 2.5625 -3.578125 L 2.5625 -0.75 C 2.5625 -0.488281 2.488281 -0.285156 2.34375 -0.140625 C 2.207031 0.00390625 2.015625 0.078125 1.765625 0.078125 C 1.523438 0.078125 1.328125 0.00390625 1.171875 -0.140625 C 1.023438 -0.285156 0.953125 -0.488281 0.953125 -0.75 L 0.953125 -8.140625 C 0.953125 -8.378906 1.019531 -8.566406 1.15625 -8.703125 C 1.300781 -8.835938 1.5 -8.90625 1.75 -8.90625 L 4.90625 -8.90625 C 5.914062 -8.90625 6.679688 -8.679688 7.203125 -8.234375 C 7.734375 -7.785156 8 -7.132812 8 -6.28125 C 8 -5.59375 7.800781 -5.023438 7.40625 -4.578125 C 7.019531 -4.140625 6.46875 -3.859375 5.75 -3.734375 C 6 -3.671875 6.210938 -3.5625 6.390625 -3.40625 C 6.578125 -3.257812 6.757812 -3.050781 6.9375 -2.78125 Z M 4.671875 -4.828125 C 5.285156 -4.828125 5.734375 -4.941406 6.015625 -5.171875 C 6.304688 -5.410156 6.453125 -5.769531 6.453125 -6.25 C 6.453125 -6.738281 6.304688 -7.09375 6.015625 -7.3125 C 5.734375 -7.53125 5.285156 -7.640625 4.671875 -7.640625 L 2.546875 -7.640625 L 2.546875 -4.828125 Z M 4.671875 -4.828125 "/></g></g><g style="fill:rgb(100%,8.628845%,8.628845%);fill-opacity:1;"><g transform="translate(305.463229, 73.729651)"><path style="stroke:none;" d="M 1.75 0 C 1.5 0 1.300781 -0.0664062 1.15625 -0.203125 C 1.019531 -0.335938 0.953125 -0.523438 0.953125 -0.765625 L 0.953125 -8.140625 C 0.953125 -8.378906 1.019531 -8.566406 1.15625 -8.703125 C 1.300781 -8.835938 1.5 -8.90625 1.75 -8.90625 L 6.3125 -8.90625 C 6.550781 -8.90625 6.738281 -8.847656 6.875 -8.734375 C 7.007812 -8.628906 7.078125 -8.476562 7.078125 -8.28125 C 7.078125 -8.070312 7.007812 -7.910156 6.875 -7.796875 C 6.738281 -7.679688 6.550781 -7.625 6.3125 -7.625 L 2.546875 -7.625 L 2.546875 -5.171875 L 6.0625 -5.171875 C 6.300781 -5.171875 6.488281 -5.113281 6.625 -5 C 6.757812 -4.894531 6.828125 -4.738281 6.828125 -4.53125 C 6.828125 -4.320312 6.757812 -4.160156 6.625 -4.046875 C 6.488281 -3.941406 6.300781 -3.890625 6.0625 -3.890625 L 2.546875 -3.890625 L 2.546875 -1.296875 L 6.3125 -1.296875 C 6.550781 -1.296875 6.738281 -1.238281 6.875 -1.125 C 7.007812 -1.007812 7.078125 -0.84375 7.078125 -0.625 C 7.078125 -0.425781 7.007812 -0.269531 6.875 -0.15625 C 6.738281 -0.0507812 6.550781 0 6.3125 0 Z M 1.75 0 "/></g></g><g style="fill:rgb(100%,8.628845%,8.628845%);fill-opacity:1;"><g transform="translate(314.55227, 73.729651)"><path style="stroke:none;" d="M 9.03125 -0.96875 C 9.082031 -0.863281 9.109375 -0.753906 9.109375 -0.640625 C 9.109375 -0.453125 9.03125 -0.289062 8.875 -0.15625 C 8.71875 -0.0195312 8.539062 0.046875 8.34375 0.046875 C 8.207031 0.046875 8.078125 0.0078125 7.953125 -0.0625 C 7.835938 -0.132812 7.75 -0.242188 7.6875 -0.390625 L 6.921875 -2.078125 L 2.484375 -2.078125 L 1.71875 -0.390625 C 1.65625 -0.242188 1.5625 -0.132812 1.4375 -0.0625 C 1.320312 0.0078125 1.191406 0.046875 1.046875 0.046875 C 0.859375 0.046875 0.679688 -0.0195312 0.515625 -0.15625 C 0.359375 -0.289062 0.28125 -0.453125 0.28125 -0.640625 C 0.28125 -0.753906 0.304688 -0.863281 0.359375 -0.96875 L 3.84375 -8.46875 C 3.914062 -8.632812 4.03125 -8.757812 4.1875 -8.84375 C 4.34375 -8.9375 4.507812 -8.984375 4.6875 -8.984375 C 4.863281 -8.984375 5.03125 -8.9375 5.1875 -8.84375 C 5.34375 -8.757812 5.457031 -8.632812 5.53125 -8.46875 Z M 3.03125 -3.34375 L 6.375 -3.34375 L 4.703125 -7.109375 Z M 3.03125 -3.34375 "/></g></g><g style="fill:rgb(100%,8.628845%,8.628845%);fill-opacity:1;"><g transform="translate(325.575422, 73.729651)"><path style="stroke:none;" d="M 3.875 0.0625 C 3.625 0.0625 3.425781 -0.0078125 3.28125 -0.15625 C 3.132812 -0.300781 3.0625 -0.5 3.0625 -0.75 L 3.0625 -7.578125 L 0.765625 -7.578125 C 0.253906 -7.578125 0 -7.796875 0 -8.234375 C 0 -8.679688 0.253906 -8.90625 0.765625 -8.90625 L 6.984375 -8.90625 C 7.492188 -8.90625 7.75 -8.679688 7.75 -8.234375 C 7.75 -7.796875 7.492188 -7.578125 6.984375 -7.578125 L 4.6875 -7.578125 L 4.6875 -0.75 C 4.6875 -0.5 4.613281 -0.300781 4.46875 -0.15625 C 4.320312 -0.0078125 4.125 0.0625 3.875 0.0625 Z M 3.875 0.0625 "/></g></g><g style="fill:rgb(100%,8.628845%,8.628845%);fill-opacity:1;"><g transform="translate(334.967845, 73.729651)"><path style="stroke:none;" d="M 1.765625 0.078125 C 1.523438 0.078125 1.328125 0.00390625 1.171875 -0.140625 C 1.023438 -0.296875 0.953125 -0.5 0.953125 -0.75 L 0.953125 -8.171875 C 0.953125 -8.410156 1.023438 -8.601562 1.171875 -8.75 C 1.328125 -8.894531 1.523438 -8.96875 1.765625 -8.96875 C 2.023438 -8.96875 2.226562 -8.894531 2.375 -8.75 C 2.519531 -8.601562 2.59375 -8.410156 2.59375 -8.171875 L 2.59375 -0.75 C 2.59375 -0.5 2.519531 -0.296875 2.375 -0.140625 C 2.226562 0.00390625 2.023438 0.078125 1.765625 0.078125 Z M 1.765625 0.078125 "/></g></g><g style="fill:rgb(100%,8.628845%,8.628845%);fill-opacity:1;"><g transform="translate(340.163381, 73.729651)"><path style="stroke:none;" d="M 7.453125 -8.5625 C 7.578125 -8.84375 7.796875 -8.984375 8.109375 -8.984375 C 8.328125 -8.984375 8.519531 -8.914062 8.6875 -8.78125 C 8.851562 -8.644531 8.9375 -8.476562 8.9375 -8.28125 C 8.9375 -8.1875 8.910156 -8.082031 8.859375 -7.96875 L 5.359375 -0.4375 C 5.285156 -0.269531 5.171875 -0.140625 5.015625 -0.046875 C 4.859375 0.0351562 4.691406 0.078125 4.515625 0.078125 C 4.335938 0.078125 4.171875 0.0351562 4.015625 -0.046875 C 3.859375 -0.140625 3.742188 -0.269531 3.671875 -0.4375 L 0.171875 -7.96875 C 0.117188 -8.082031 0.09375 -8.179688 0.09375 -8.265625 C 0.09375 -8.472656 0.179688 -8.644531 0.359375 -8.78125 C 0.535156 -8.914062 0.734375 -8.984375 0.953125 -8.984375 C 1.085938 -8.984375 1.21875 -8.945312 1.34375 -8.875 C 1.46875 -8.800781 1.5625 -8.695312 1.625 -8.5625 L 4.53125 -2.09375 Z M 7.453125 -8.5625 "/></g></g><g style="fill:rgb(100%,8.628845%,8.628845%);fill-opacity:1;"><g transform="translate(350.832566, 73.729651)"><path style="stroke:none;" d="M 1.75 0 C 1.5 0 1.300781 -0.0664062 1.15625 -0.203125 C 1.019531 -0.335938 0.953125 -0.523438 0.953125 -0.765625 L 0.953125 -8.140625 C 0.953125 -8.378906 1.019531 -8.566406 1.15625 -8.703125 C 1.300781 -8.835938 1.5 -8.90625 1.75 -8.90625 L 6.3125 -8.90625 C 6.550781 -8.90625 6.738281 -8.847656 6.875 -8.734375 C 7.007812 -8.628906 7.078125 -8.476562 7.078125 -8.28125 C 7.078125 -8.070312 7.007812 -7.910156 6.875 -7.796875 C 6.738281 -7.679688 6.550781 -7.625 6.3125 -7.625 L 2.546875 -7.625 L 2.546875 -5.171875 L 6.0625 -5.171875 C 6.300781 -5.171875 6.488281 -5.113281 6.625 -5 C 6.757812 -4.894531 6.828125 -4.738281 6.828125 -4.53125 C 6.828125 -4.320312 6.757812 -4.160156 6.625 -4.046875 C 6.488281 -3.941406 6.300781 -3.890625 6.0625 -3.890625 L 2.546875 -3.890625 L 2.546875 -1.296875 L 6.3125 -1.296875 C 6.550781 -1.296875 6.738281 -1.238281 6.875 -1.125 C 7.007812 -1.007812 7.078125 -0.84375 7.078125 -0.625 C 7.078125 -0.425781 7.007812 -0.269531 6.875 -0.15625 C 6.738281 -0.0507812 6.550781 0 6.3125 0 Z M 1.75 0 "/></g></g></g></svg>